<svg xmlns="http://www.w3.org/2000/svg" xmlns:xlink="http://www.w3.org/1999/xlink" width="75.203" height="75.203" viewBox="0 0 75.203 75.203">
  <defs>
    <clipPath id="clip-path">
      <rect id="Rect치ngulo_356271" data-name="Rect치ngulo 356271" width="74.085" height="75.203" fill="none"/>
    </clipPath>
  </defs>
  <g id="Grupo_1071673" data-name="Grupo 1071673" transform="translate(-184 -1136)">
    <g id="Grupo_995637" data-name="Grupo 995637" transform="translate(3 633)">
      <circle id="Elipse_8159" data-name="Elipse 8159" cx="37.602" cy="37.602" r="37.602" transform="translate(181 503)" fill="#ffd357"/>
    </g>
    <g id="Grupo_1071729" data-name="Grupo 1071729" transform="translate(185.118 1136)">
      <g id="Grupo_1071728" data-name="Grupo 1071728" clip-path="url(#clip-path)">
        <path id="Trazado_771172" data-name="Trazado 771172" d="M50.707,23.608a34.68,34.68,0,1,1-34.68,34.68,34.68,34.68,0,0,1,34.68-34.68" transform="translate(-13.664 -20.127)" fill="#ffea92"/>
        <path id="Trazado_771173" data-name="Trazado 771173" d="M53.8,33.85l-.015.021a1.753,1.753,0,0,0,.671,2.614,32.915,32.915,0,1,1-32.9,2.849L22.5,40.9a1.3,1.3,0,0,0,2.18.126,1.422,1.422,0,0,0,.09-.153c3.049-6,3.381-6.144,2.84-7.05s-.848-.685-7.553-.851a1.48,1.48,0,0,0-.178.006,1.3,1.3,0,0,0-.925,1.976l.794,1.331a36.446,36.446,0,1,0,36.224-3,1.757,1.757,0,0,0-2.167.563" transform="translate(-3.421 -28.113)" fill="#6bdddd"/>
        <path id="Trazado_771174" data-name="Trazado 771174" d="M37.067,99.906q-1.638,0-3.287-.146A37.036,37.036,0,0,1,15.539,32.712l-.513-.861a1.932,1.932,0,0,1-.063-1.867,1.808,1.808,0,0,1,1.436-1,2.018,2.018,0,0,1,.251-.009c1.322.033,2.4.05,3.27.065,3.7.062,4.176.07,4.775,1.073s.384,1.423-1.3,4.663c-.408.785-.91,1.753-1.523,2.956a2,2,0,0,1-.126.214,1.8,1.8,0,0,1-1.56.791,1.933,1.933,0,0,1-1.616-.943l-.607-1.017a32.318,32.318,0,1,0,32.823-3.17,2.343,2.343,0,0,1-.9-3.493l.016-.022a2.345,2.345,0,0,1,2.9-.751A37.057,37.057,0,0,1,37.067,99.906ZM16.6,30.155c-.028,0-.057,0-.084,0a.623.623,0,0,0-.5.356.756.756,0,0,0,.022.732l.794,1.331a.589.589,0,0,1-.171.787A35.856,35.856,0,1,0,52.3,30.411a1.166,1.166,0,0,0-1.438.375l-.009.013a1.172,1.172,0,0,0-.19.985,1.154,1.154,0,0,0,.628.758A33.886,33.886,0,0,1,66.316,46.6a33.213,33.213,0,0,1,3.932,20.71A33.5,33.5,0,1,1,17.8,35.442a.59.59,0,0,1,.846.18l.936,1.569a.77.77,0,0,0,.636.369.616.616,0,0,0,.549-.27.873.873,0,0,0,.053-.09c.615-1.208,1.119-2.179,1.528-2.966,1.6-3.073,1.576-3.107,1.333-3.516s-.262-.44-3.782-.5c-.878-.014-1.953-.032-3.279-.065Z" transform="translate(0 -24.703)"/>
        <path id="Trazado_771175" data-name="Trazado 771175" d="M310.22,364.9a3.165,3.165,0,0,0-3.165,3.165v9.453h21.363v-9.453a3.165,3.165,0,0,0-3.165-3.165Z" transform="translate(-261.78 -311.099)" fill="#a4c9ff"/>
        <path id="Trazado_771176" data-name="Trazado 771176" d="M360.156,347.4a3.345,3.345,0,0,1-3.345-3.345v-4.095h6.69v4.095a3.345,3.345,0,0,1-3.345,3.345" transform="translate(-304.199 -289.834)" fill="#f9cfcf"/>
        <path id="Trazado_771177" data-name="Trazado 771177" d="M325.008,353.437H303.645a.59.59,0,0,1-.59-.59v-9.453a3.759,3.759,0,0,1,3.755-3.755h3.582v-3.088a.59.59,0,0,1,.59-.59h6.69a.59.59,0,0,1,.59.59v3.088h3.582a3.759,3.759,0,0,1,3.755,3.755v9.453A.59.59,0,0,1,325.008,353.437Zm-20.773-1.18h20.184v-8.863a2.578,2.578,0,0,0-2.575-2.575h-4.172a.59.59,0,0,1-.59-.59v-3.088h-5.511v3.088a.59.59,0,0,1-.59.59h-4.172a2.578,2.578,0,0,0-2.575,2.575v8.863Z" transform="translate(-258.369 -286.424)"/>
        <path id="Trazado_771178" data-name="Trazado 771178" d="M310.38,244.944q-.009.187-.009.377v7.462h20.288v-7.838Z" transform="translate(-264.607 -208.827)" fill="#4671c6"/>
        <path id="Trazado_771179" data-name="Trazado 771179" d="M327.247,249.962H306.959a.59.59,0,0,1-.59-.59V241.91q0-.2.01-.407a.59.59,0,0,1,.589-.56h20.279a.59.59,0,0,1,.59.59v7.839A.59.59,0,0,1,327.247,249.962Zm-19.7-1.18h19.109v-6.659H307.549Z" transform="translate(-261.195 -205.417)"/>
        <path id="Trazado_771180" data-name="Trazado 771180" d="M323.456,222.582v-.8a8.514,8.514,0,0,0-17.028,0v.8a2.574,2.574,0,1,0,.225,5.13,8.531,8.531,0,0,0,16.578,0,2.574,2.574,0,1,0,.224-5.13Z" transform="translate(-258.985 -181.89)" fill="#f9cfcf"/>
        <path id="Trazado_771181" data-name="Trazado 771181" d="M311.53,231.4a9.049,9.049,0,0,1-8.741-6.5,3.2,3.2,0,0,1-1.967-.814,3.16,3.16,0,0,1,1.6-5.462v-.251a9.1,9.1,0,0,1,18.207,0v.251a3.155,3.155,0,0,1,1.6,5.462,3.2,3.2,0,0,1-1.967.814A9.047,9.047,0,0,1,311.53,231.4Zm-8.289-7.693a.59.59,0,0,1,.574.455,7.941,7.941,0,0,0,15.429,0,.59.59,0,0,1,.636-.451,2,2,0,0,0,1.568-.5,1.968,1.968,0,0,0,.062-2.877,2.022,2.022,0,0,0-1.455-.572.585.585,0,0,1-.424-.168.592.592,0,0,1-.177-.421v-.8a7.924,7.924,0,0,0-15.848,0v.8a.59.59,0,0,1-.177.421.57.57,0,0,1-.425.168,2.009,2.009,0,0,0-1.455.572,1.96,1.96,0,0,0-.595,1.41,1.98,1.98,0,0,0,.656,1.468,2,2,0,0,0,1.568.5A.579.579,0,0,1,303.242,223.711Z" transform="translate(-255.573 -178.478)"/>
        <path id="Trazado_771182" data-name="Trazado 771182" d="M324.6,197.886h-6.915a7.315,7.315,0,0,0-7.315,7.315v2.633h7.964a4.283,4.283,0,0,0,3.794-2.3,5.557,5.557,0,0,0,4.376,2.3h4.154V205.2c0-4.04-2.712-7.315-6.058-7.315" transform="translate(-264.607 -168.708)" fill="#4671c6"/>
        <path id="Trazado_771183" data-name="Trazado 771183" d="M327.247,205.015h-4.154a6.028,6.028,0,0,1-4.3-1.906,4.86,4.86,0,0,1-3.865,1.906h-7.964a.59.59,0,0,1-.59-.59v-2.634a7.914,7.914,0,0,1,7.905-7.905h6.915c3.665,0,6.647,3.546,6.647,7.905v2.634a.59.59,0,0,1-.59.59m-8.53-3.476a.589.589,0,0,1,.466.229,4.938,4.938,0,0,0,3.91,2.067h3.564v-2.044c0-3.708-2.453-6.726-5.468-6.726h-6.915a6.733,6.733,0,0,0-6.726,6.726v2.044h7.375a3.689,3.689,0,0,0,3.272-1.981.59.59,0,0,1,.471-.313Z" transform="translate(-261.195 -165.297)"/>
        <path id="Trazado_771184" data-name="Trazado 771184" d="M53.316,364.9a3.165,3.165,0,0,0-3.165,3.165v9.453H71.514v-9.453a3.165,3.165,0,0,0-3.165-3.165Z" transform="translate(-42.756 -311.099)" fill="#a4c9ff"/>
        <path id="Trazado_771185" data-name="Trazado 771185" d="M103.252,347.4a3.345,3.345,0,0,1-3.345-3.345v-4.095h6.69v4.095a3.345,3.345,0,0,1-3.345,3.345" transform="translate(-85.176 -289.834)" fill="#f9cfcf"/>
        <path id="Trazado_771186" data-name="Trazado 771186" d="M68.1,353.437H46.741a.59.59,0,0,1-.59-.59v-9.453a3.759,3.759,0,0,1,3.754-3.755h3.582v-3.088a.59.59,0,0,1,.59-.59h6.69a.59.59,0,0,1,.59.59v3.088h3.582a3.758,3.758,0,0,1,3.754,3.755v9.453a.59.59,0,0,1-.59.59m-20.773-1.18H67.514v-8.863a2.578,2.578,0,0,0-2.575-2.575H60.767a.59.59,0,0,1-.59-.59v-3.088h-5.51v3.088a.59.59,0,0,1-.59.59H49.905a2.578,2.578,0,0,0-2.575,2.575Z" transform="translate(-39.346 -286.424)"/>
        <path id="Trazado_771187" data-name="Trazado 771187" d="M53.474,244.944q-.009.187-.009.377v7.462H73.753v-7.838Z" transform="translate(-45.582 -208.827)" fill="#4671c6"/>
        <path id="Trazado_771188" data-name="Trazado 771188" d="M70.343,249.962H50.055a.59.59,0,0,1-.59-.59V241.91q0-.2.01-.407a.59.59,0,0,1,.589-.56H70.343a.59.59,0,0,1,.59.59v7.839A.59.59,0,0,1,70.343,249.962Zm-19.7-1.18H69.753v-6.659H50.645Z" transform="translate(-42.171 -205.417)"/>
        <path id="Trazado_771189" data-name="Trazado 771189" d="M66.552,222.582v-.8a8.514,8.514,0,0,0-17.028,0v.8a2.574,2.574,0,1,0,.225,5.13,8.531,8.531,0,0,0,16.578,0,2.574,2.574,0,1,0,.224-5.13" transform="translate(-39.962 -181.89)" fill="#f9cfcf"/>
        <path id="Trazado_771190" data-name="Trazado 771190" d="M54.626,231.4a9.049,9.049,0,0,1-8.741-6.5,3.2,3.2,0,0,1-1.967-.814,3.16,3.16,0,0,1,1.6-5.462v-.251a9.1,9.1,0,0,1,18.207,0v.251a3.155,3.155,0,0,1,1.6,5.462,3.2,3.2,0,0,1-1.967.814A9.048,9.048,0,0,1,54.626,231.4Zm-8.288-7.693a.59.59,0,0,1,.574.455,7.941,7.941,0,0,0,15.429,0,.59.59,0,0,1,.636-.451,2,2,0,0,0,1.568-.5,1.968,1.968,0,0,0,.062-2.877,2.033,2.033,0,0,0-1.455-.572.573.573,0,0,1-.425-.168.592.592,0,0,1-.177-.421v-.8a7.924,7.924,0,0,0-15.848,0v.8a.59.59,0,0,1-.177.421.583.583,0,0,1-.425.168,2.016,2.016,0,0,0-1.455.572,1.959,1.959,0,0,0-.595,1.41,1.98,1.98,0,0,0,.656,1.468,2,2,0,0,0,1.568.5A.516.516,0,0,1,46.338,223.711Z" transform="translate(-36.55 -178.478)"/>
        <path id="Trazado_771191" data-name="Trazado 771191" d="M67.7,197.886H60.78a7.315,7.315,0,0,0-7.315,7.315v2.633h7.964a4.283,4.283,0,0,0,3.794-2.3,5.557,5.557,0,0,0,4.376,2.3h4.154V205.2C73.753,201.161,71.041,197.886,67.7,197.886Z" transform="translate(-45.582 -168.708)" fill="#4671c6"/>
        <path id="Trazado_771192" data-name="Trazado 771192" d="M70.343,205.015H66.189a6.027,6.027,0,0,1-4.3-1.906,4.861,4.861,0,0,1-3.866,1.906H50.055a.59.59,0,0,1-.59-.59v-2.634a7.914,7.914,0,0,1,7.905-7.905h6.915c3.666,0,6.648,3.546,6.648,7.905v2.634a.59.59,0,0,1-.59.59m-8.53-3.476a.589.589,0,0,1,.466.229,4.938,4.938,0,0,0,3.909,2.067h3.564v-2.044c0-3.708-2.453-6.726-5.468-6.726H57.37a6.733,6.733,0,0,0-6.726,6.726v2.044h7.374a3.689,3.689,0,0,0,3.273-1.981.59.59,0,0,1,.471-.313l.051,0" transform="translate(-42.171 -165.297)"/>
        <path id="Trazado_771193" data-name="Trazado 771193" d="M186.321,344.854a3.9,3.9,0,0,1,3.9,3.9V360.4H163.893v-11.65a3.9,3.9,0,0,1,3.9-3.9h18.527Z" transform="translate(-139.727 -294.005)" fill="#a4c9ff"/>
        <path id="Trazado_771194" data-name="Trazado 771194" d="M227.459,318.1a4.42,4.42,0,0,0,4.42-4.42V308h-8.84v5.68A4.42,4.42,0,0,0,227.459,318.1Z" transform="translate(-190.152 -262.587)" fill="#f9cfcf"/>
        <path id="Trazado_771195" data-name="Trazado 771195" d="M186.653,326.188H160.325a.59.59,0,0,1-.59-.59v-11.65a4.5,4.5,0,0,1,4.49-4.49h4.254V304.59a.59.59,0,0,1,.59-.59h8.84a.59.59,0,0,1,.59.59v4.868h4.254a4.5,4.5,0,0,1,4.49,4.49V325.6A.59.59,0,0,1,186.653,326.188Zm-25.738-1.18h25.149v-11.06a3.315,3.315,0,0,0-3.311-3.311h-4.844a.59.59,0,0,1-.59-.59V305.18h-7.66v4.868a.59.59,0,0,1-.59.59h-4.844a3.315,3.315,0,0,0-3.311,3.311v11.06Z" transform="translate(-136.182 -259.175)"/>
        <path id="Trazado_771196" data-name="Trazado 771196" d="M179.163,144.85v-5.83h5.62a9.016,9.016,0,0,1,9.016,9.016v9.2h-25V144.85Z" transform="translate(-143.906 -118.521)" fill="#4671c6"/>
        <path id="Trazado_771197" data-name="Trazado 771197" d="M190.386,154.412h-25a.59.59,0,0,1-.59-.59V141.439a.59.59,0,0,1,.59-.59h9.778v-5.24a.59.59,0,0,1,.59-.59h5.62a9.616,9.616,0,0,1,9.605,9.606v9.2A.59.59,0,0,1,190.386,154.412Zm-24.414-1.18H189.8v-8.606a8.435,8.435,0,0,0-8.426-8.426h-5.03v5.24a.59.59,0,0,1-.59.59h-9.778Z" transform="translate(-140.494 -115.111)"/>
        <path id="Trazado_771198" data-name="Trazado 771198" d="M163.12,169.455v-.983a10.493,10.493,0,0,1,20.985,0v.983a3.173,3.173,0,1,1-.277,6.322,10.513,10.513,0,0,1-20.431,0,3.173,3.173,0,1,1-.277-6.322Z" transform="translate(-136.283 -134.766)" fill="#f9cfcf"/>
        <path id="Trazado_771199" data-name="Trazado 771199" d="M170.2,180.985a11.014,11.014,0,0,1-10.668-8.012A3.813,3.813,0,0,1,157.1,172a3.757,3.757,0,0,1,2.022-6.512v-.427a11.083,11.083,0,0,1,22.165,0v.427a3.761,3.761,0,0,1,2.14,1.047,3.743,3.743,0,0,1-.117,5.465,3.812,3.812,0,0,1-2.437.972A11.013,11.013,0,0,1,170.2,180.985Zm-10.215-9.208a.59.59,0,0,1,.574.455,9.923,9.923,0,0,0,19.282,0,.588.588,0,0,1,.636-.451,2.6,2.6,0,0,0,2.893-2.567,2.553,2.553,0,0,0-.774-1.835,2.6,2.6,0,0,0-1.892-.744.59.59,0,0,1-.6-.59v-.983a9.9,9.9,0,0,0-19.806,0v.983a.59.59,0,0,1-.6.59,2.6,2.6,0,0,0-1.892.744,2.564,2.564,0,0,0,.08,3.746,2.6,2.6,0,0,0,2.039.657C159.946,171.778,159.967,171.777,159.988,171.777Z" transform="translate(-132.872 -131.356)"/>
        <path id="Trazado_771200" data-name="Trazado 771200" d="M208.561,247.887a1.326,1.326,0,0,0,1.326-1.326v-1.415a1.326,1.326,0,0,0-2.652,0v1.415a1.326,1.326,0,0,0,1.326,1.326" transform="translate(-176.678 -207.869)"/>
        <path id="Trazado_771201" data-name="Trazado 771201" d="M282.467,247.887a1.326,1.326,0,0,0,1.326-1.326v-1.415a1.326,1.326,0,1,0-2.652,0v1.415a1.326,1.326,0,0,0,1.326,1.326" transform="translate(-239.687 -207.869)"/>
        <path id="Trazado_771202" data-name="Trazado 771202" d="M173.814,139.02a9.016,9.016,0,0,1,9.016,9.016v3.246h-19.7a5.322,5.322,0,0,1-4.82-3.064l-2.351-5.017a.361.361,0,0,1,.326-.514h1.321a6.927,6.927,0,0,0,4.436-1.607,8.878,8.878,0,0,1,5.685-2.059Z" transform="translate(-132.937 -118.521)" fill="#4671c6"/>
        <path id="Trazado_771203" data-name="Trazado 771203" d="M237.989,288.481a3.682,3.682,0,0,1-1.085-.147,3.266,3.266,0,0,1-1.371-.8.59.59,0,1,1,.837-.831,2.082,2.082,0,0,0,.878.5,2.912,2.912,0,0,0,1.483,0,2.092,2.092,0,0,0,.878-.5.59.59,0,1,1,.838.83,3.261,3.261,0,0,1-1.372.8A3.675,3.675,0,0,1,237.989,288.481Z" transform="translate(-200.657 -244.277)"/>
        <path id="Trazado_771204" data-name="Trazado 771204" d="M179.417,148.461h-19.7a5.934,5.934,0,0,1-5.354-3.4l-2.351-5.017a.951.951,0,0,1,.861-1.354H154.2a6.351,6.351,0,0,0,4.058-1.47,9.485,9.485,0,0,1,6.063-2.2H170.4a9.616,9.616,0,0,1,9.605,9.606v3.246A.59.59,0,0,1,179.417,148.461Zm-26.179-8.6,2.2,4.691a4.749,4.749,0,0,0,4.285,2.725h19.106v-2.656A8.435,8.435,0,0,0,170.4,136.2h-6.082a8.3,8.3,0,0,0-5.307,1.922,7.532,7.532,0,0,1-4.814,1.743h-.96Z" transform="translate(-129.525 -115.111)"/>
        <path id="Trazado_771205" data-name="Trazado 771205" d="M205.656,4H189.829a1.334,1.334,0,0,0-1.334,1.334V16.1c0,3.6,3.374,6.941,8.9,8.807h0a1.093,1.093,0,0,0,.7,0h0c5.524-1.866,8.9-5.206,8.9-8.807V5.334A1.334,1.334,0,0,0,205.656,4Z" transform="translate(-160.701 -3.41)" fill="#6bdddd"/>
        <path id="Trazado_771206" data-name="Trazado 771206" d="M214.754,38.622c-3.8-1.443-6.305-3.709-6.305-5.763v-9.3H221.06v9.3C221.06,34.913,218.556,37.178,214.754,38.622Z" transform="translate(-177.713 -20.081)" fill="#e0ebfc"/>
        <path id="Trazado_771207" data-name="Trazado 771207" d="M220.055,48.863a1.291,1.291,0,0,1-.184-.013,1.272,1.272,0,0,1-.908-.605l-1.712-2.854a1.274,1.274,0,0,1,2.185-1.311l.911,1.519,4.659-4.255a1.274,1.274,0,0,1,1.718,1.881l-5.809,5.306A1.273,1.273,0,0,1,220.055,48.863Z" transform="translate(-185.062 -34.963)" fill="#4671c6"/>
        <path id="Trazado_771208" data-name="Trazado 771208" d="M194.334,22.147a1.683,1.683,0,0,1-.538-.088c-5.822-1.967-9.3-5.468-9.3-9.366V1.923A1.925,1.925,0,0,1,186.42,0h15.827a1.925,1.925,0,0,1,1.923,1.923v10.77c0,3.9-3.476,7.4-9.3,9.366A1.678,1.678,0,0,1,194.334,22.147ZM186.42,1.18a.744.744,0,0,0-.744.744v10.77c0,3.317,3.256,6.478,8.5,8.248a.5.5,0,0,0,.321,0c5.241-1.771,8.5-4.931,8.5-8.248V1.923a.745.745,0,0,0-.744-.744Z" transform="translate(-157.293)"/>
        <path id="Trazado_771209" data-name="Trazado 771209" d="M211.342,35.8a.59.59,0,0,1-.209-.038c-4.124-1.566-6.686-3.985-6.686-6.314v-9.3a.59.59,0,0,1,.59-.59h12.611a.59.59,0,0,1,.59.59v9.3c0,2.329-2.562,4.749-6.686,6.314A.6.6,0,0,1,211.342,35.8Zm-5.715-15.068v8.715c0,1.737,2.288,3.783,5.715,5.131,3.428-1.347,5.716-3.394,5.716-5.131V20.734Z" transform="translate(-174.301 -16.671)"/>
        <path id="Trazado_771210" data-name="Trazado 771210" d="M167.833,413.073H136.8a1.586,1.586,0,0,1-1.586-1.586v-12.9A1.586,1.586,0,0,1,136.8,397h31.036a1.586,1.586,0,0,1,1.586,1.586v12.9A1.586,1.586,0,0,1,167.833,413.073Z" transform="translate(-115.274 -338.462)" fill="#4671c6"/>
        <path id="Trazado_771211" data-name="Trazado 771211" d="M186.725,433.59a.59.59,0,0,0-.59-.59h-1.17a.59.59,0,0,0,0,1.179v3.892a.59.59,0,0,0,0,1.179h1.17a.59.59,0,0,0,.005-1.179V434.18A.591.591,0,0,0,186.725,433.59Z" transform="translate(-157.189 -369.154)" fill="#e0ebfc"/>
        <path id="Trazado_771212" data-name="Trazado 771212" d="M292.384,433h-.78a1.567,1.567,0,0,0-1.565,1.565v3.121a1.567,1.567,0,0,0,1.565,1.565h.78a1.567,1.567,0,0,0,1.565-1.565v-3.121A1.567,1.567,0,0,0,292.384,433m.385,4.685a.386.386,0,0,1-.385.385h-.78a.386.386,0,0,1-.385-.385v-3.121a.386.386,0,0,1,.385-.385h.78a.386.386,0,0,1,.385.385Z" transform="translate(-247.273 -369.154)" fill="#e0ebfc"/>
        <path id="Trazado_771213" data-name="Trazado 771213" d="M327.4,438.424l-1.04-2.376a1.561,1.561,0,0,0-.476-3.048h-1.755a.59.59,0,0,0-.59.59v5.071a.59.59,0,1,0,1.18,0V436.13h.39l1.211,2.767a.59.59,0,1,0,1.081-.473Zm-1.515-3.474h-1.165v-.771h1.165a.385.385,0,1,1,0,.771" transform="translate(-275.831 -369.154)" fill="#e0ebfc"/>
        <path id="Trazado_771214" data-name="Trazado 771214" d="M207.37,434.18h.78a.386.386,0,0,1,.385.385.59.59,0,1,0,1.18,0A1.567,1.567,0,0,0,208.15,433h-.78a1.565,1.565,0,1,0,0,3.13h.78a.386.386,0,0,1,.385.385v1.17a.386.386,0,0,1-.385.385h-.78a.386.386,0,0,1-.385-.385.59.59,0,1,0-1.18,0,1.567,1.567,0,0,0,1.565,1.565h.78a1.567,1.567,0,0,0,1.565-1.565v-1.17a1.567,1.567,0,0,0-1.565-1.565h-.78a.385.385,0,1,1,0-.771Z" transform="translate(-175.459 -369.154)" fill="#e0ebfc"/>
        <path id="Trazado_771215" data-name="Trazado 771215" d="M263.111,433h-2.73a.59.59,0,0,0,0,1.18h.776v4.481a.59.59,0,1,0,1.18,0V434.18h.775a.59.59,0,1,0,0-1.18" transform="translate(-221.485 -369.154)" fill="#e0ebfc"/>
        <path id="Trazado_771216" data-name="Trazado 771216" d="M155.683,433a.59.59,0,0,0-.59.59v2.34a2.145,2.145,0,0,1-1.551,2.058v-4.4a.59.59,0,1,0-1.18,0v5.071a.59.59,0,0,0,.59.59,3.324,3.324,0,0,0,3.32-3.32v-2.34a.59.59,0,0,0-.59-.59" transform="translate(-129.897 -369.154)" fill="#e0ebfc"/>
        <path id="Trazado_771217" data-name="Trazado 771217" d="M241.435,433.59a.59.59,0,0,0-.59-.59h-1.17a.59.59,0,0,0-.005,1.179v3.892a.59.59,0,0,0,.005,1.179h1.17a.59.59,0,0,0,0-1.179v-3.892A.589.589,0,0,0,241.435,433.59Z" transform="translate(-203.832 -369.154)" fill="#e0ebfc"/>
        <path id="Trazado_771218" data-name="Trazado 771218" d="M164.421,410.253H133.385a2.179,2.179,0,0,1-2.176-2.176v-12.9A2.179,2.179,0,0,1,133.385,393h31.036a2.178,2.178,0,0,1,2.176,2.176v12.9A2.178,2.178,0,0,1,164.421,410.253ZM133.385,394.18a1,1,0,0,0-1,1v12.9a1,1,0,0,0,1,1h31.036a1,1,0,0,0,1-1v-12.9a1,1,0,0,0-1-1Z" transform="translate(-111.862 -335.052)"/>
        <rect id="Rect치ngulo_356270" data-name="Rect치ngulo 356270" width="2.949" height="6.439" rx="1.475" transform="translate(35.677 54.68)" fill="#e0ebfc"/>
        <path id="Trazado_771219" data-name="Trazado 771219" d="M240.908,374.452h-1.769a1.181,1.181,0,0,1-1.18-1.18v-5.259a1.181,1.181,0,0,1,1.18-1.18h1.769a1.181,1.181,0,0,1,1.18,1.18v5.259a1.181,1.181,0,0,1-1.18,1.18m-1.769-6.439v5.26h1.769v-5.259h-1.769Z" transform="translate(-202.872 -312.744)"/>
      </g>
    </g>
  </g>
</svg>
