<svg xmlns="http://www.w3.org/2000/svg" xmlns:xlink="http://www.w3.org/1999/xlink" width="75.203" height="75.203" viewBox="0 0 75.203 75.203">
  <defs>
    <clipPath id="clip-path">
      <rect id="Rectángulo_356273" data-name="Rectángulo 356273" width="68.203" height="66.478" fill="none"/>
    </clipPath>
  </defs>
  <g id="Grupo_1071676" data-name="Grupo 1071676" transform="translate(-184 -1136.203)">
    <g id="Grupo_995637" data-name="Grupo 995637" transform="translate(3 633.203)">
      <circle id="Elipse_8159" data-name="Elipse 8159" cx="37.602" cy="37.602" r="37.602" transform="translate(181 503)" fill="#ffd357"/>
    </g>
    <g id="Grupo_1071731" data-name="Grupo 1071731" transform="translate(188 1140.203)">
      <g id="Grupo_1071731-2" data-name="Grupo 1071731" clip-path="url(#clip-path)">
        <path id="Trazado_771258" data-name="Trazado 771258" d="M209.367,7.5h0a4.739,4.739,0,0,1,4.739,4.739v.832h2.8a5.171,5.171,0,0,1,3.06,9.34h3.426A7.493,7.493,0,0,1,224.9,37.245a5.171,5.171,0,0,1-3.05,9.347h-4.1a6.565,6.565,0,1,1-13.129,0V12.24A4.739,4.739,0,0,1,209.367,7.5" transform="translate(-177.37 -6.502)" fill="#fe93bb"/>
        <path id="Trazado_771259" data-name="Trazado 771259" d="M213.043,52.892a6.569,6.569,0,0,1-8.413-6.3V12.24a4.74,4.74,0,0,1,6.588-4.364,4.739,4.739,0,0,0-2.89,4.364V46.592a6.567,6.567,0,0,0,4.715,6.3" transform="translate(-177.372 -6.502)" fill="#fe76a8"/>
        <path id="Trazado_771260" data-name="Trazado 771260" d="M33.759,12.24V46.592a6.565,6.565,0,0,1-13.129,0h-4.1a5.171,5.171,0,0,1-3.05-9.347,7.493,7.493,0,0,1,1.508-14.833h3.426a5.171,5.171,0,0,1,3.06-9.34h2.8V12.24a4.739,4.739,0,1,1,9.478,0" transform="translate(-6.501 -6.502)" fill="#fe93bb"/>
        <path id="Trazado_771261" data-name="Trazado 771261" d="M114.226,288.634a6.573,6.573,0,0,1-8.16-6.469V279.39h.315a2.874,2.874,0,0,1,2.874,2.874,6.567,6.567,0,0,0,4.971,6.37" transform="translate(-91.937 -242.174)" fill="#fe76a8"/>
        <path id="Trazado_771262" data-name="Trazado 771262" d="M15.086,130.412a3.862,3.862,0,0,0,3.862,3.862H13.484a7.493,7.493,0,0,1,1.508-14.833h3.956a3.554,3.554,0,0,0,0,7.108,3.862,3.862,0,0,0-3.862,3.862" transform="translate(-6.501 -103.531)" fill="#fe76a8"/>
        <path id="Trazado_771263" data-name="Trazado 771263" d="M88.971,8.312a3.5,3.5,0,0,0-4.253,3q0,.02,0,.041a1.906,1.906,0,0,1-1.892,1.719H82a5.228,5.228,0,0,0-5.258,5.084,5.15,5.15,0,0,0,.575,2.46,5.208,5.208,0,0,0,1.535,1.8H75.723a5.205,5.205,0,0,1-1.535-1.8,5.172,5.172,0,0,1,4.6-7.544h2.8v-.745A4.8,4.8,0,0,1,86.256,7.5a4.7,4.7,0,0,1,2.715.809" transform="translate(-63.806 -6.503)" fill="#fe76a8"/>
        <path id="Trazado_771264" data-name="Trazado 771264" d="M47.08,240.142H41.666a5.171,5.171,0,0,1-3.05-9.347H44.03a5.171,5.171,0,0,0,3.05,9.347" transform="translate(-31.634 -200.052)" fill="#fe76a8"/>
        <path id="Trazado_771265" data-name="Trazado 771265" d="M77.27,9.255a1,1,0,0,1-.737-1.673,6.185,6.185,0,0,1,4.555-2.009h1.806a5.739,5.739,0,0,1,11.475.168,1,1,0,1,1-2,0,3.74,3.74,0,1,0-7.481,0v.831a1,1,0,0,1-1,1h-2.8a4.182,4.182,0,0,0-3.08,1.359,1,1,0,0,1-.738.325" transform="translate(-66.111 -0.003)"/>
        <path id="Trazado_771266" data-name="Trazado 771266" d="M20.694,122.374a7.576,7.576,0,0,1-7.5-6.564H10.033a6.167,6.167,0,0,1-4.916-9.894A8.491,8.491,0,0,1,8.492,89.632h1.19q-.1-.166-.188-.337a6.093,6.093,0,0,1-.624-1.952,1,1,0,0,1,1.978-.281,4.1,4.1,0,0,0,.42,1.314,4.219,4.219,0,0,0,1.241,1.451,1,1,0,0,1-.592,1.8H8.492a6.494,6.494,0,0,0-1.308,12.855,1,1,0,0,1,.389,1.785,4.188,4.188,0,0,0-1.712,3.369,4.172,4.172,0,0,0,4.172,4.172h4.095a1,1,0,0,1,1,1,5.572,5.572,0,0,0,5.567,5.565,5.5,5.5,0,0,0,2.5-.594,1,1,0,0,1,.9,1.783,7.582,7.582,0,0,1-3.407.809" transform="translate(0 -74.721)"/>
        <path id="Trazado_771267" data-name="Trazado 771267" d="M68.355,95.9h-8.09a1,1,0,1,1,0-2h8.09a4.487,4.487,0,1,0,0-8.974h-.509a1,1,0,1,1,0-2h.509a6.485,6.485,0,1,1,0,12.971" transform="translate(-51.371 -71.882)"/>
        <path id="Trazado_771268" data-name="Trazado 771268" d="M60.067,233.793a1,1,0,0,1-1-1v-2.208a5.3,5.3,0,0,0-5.294-5.294H45.925a1,1,0,1,1,0-2h7.848a7.3,7.3,0,0,1,7.292,7.292v2.208a1,1,0,0,1-1,1" transform="translate(-38.942 -193.549)"/>
        <path id="Trazado_771269" data-name="Trazado 771269" d="M86.087,113.939H82.962a1,1,0,0,1,0-2h3.125a1,1,0,1,1,0,2" transform="translate(-71.045 -97.03)"/>
        <path id="Trazado_771270" data-name="Trazado 771270" d="M99.563,276.762a1,1,0,0,1-1-1v-2.874a1,1,0,0,1,2,0v2.874a1,1,0,0,1-1,1" transform="translate(-85.435 -235.673)"/>
        <path id="Trazado_771271" data-name="Trazado 771271" d="M160.233,200.315a1,1,0,0,1-.934-.643,4.08,4.08,0,0,0-3.792-2.61h-.718a1,1,0,1,1,0-2h.718a6.089,6.089,0,0,1,5.658,3.9,1,1,0,0,1-.933,1.355" transform="translate(-133.305 -169.08)"/>
        <path id="Trazado_771272" data-name="Trazado 771272" d="M165.233,50.033a6.06,6.06,0,0,1-6.054-6.053,1,1,0,1,1,2,0,4.06,4.06,0,0,0,4.056,4.055,1,1,0,0,1,0,2" transform="translate(-137.976 -37.256)"/>
        <path id="Trazado_771273" data-name="Trazado 771273" d="M198.13,30.854a1,1,0,0,1-1-1V5.738A5.738,5.738,0,0,1,208.6,5.572h1.806a6.178,6.178,0,0,1,6.172,6.17,6.092,6.092,0,0,1-.689,2.832q-.088.171-.188.337H216.9a8.5,8.5,0,0,1,7.9,11.6,1,1,0,0,1-1.859-.732,6.5,6.5,0,0,0-6.045-8.871H213.47a1,1,0,0,1-.592-1.8,4.224,4.224,0,0,0,1.241-1.451,4.115,4.115,0,0,0,.465-1.913A4.178,4.178,0,0,0,210.41,7.57h-2.8a1,1,0,0,1-1-1V5.738a3.74,3.74,0,1,0-7.479,0V29.855a1,1,0,0,1-1,1" transform="translate(-170.872)"/>
        <path id="Trazado_771274" data-name="Trazado 771274" d="M247.648,95.9h-8.09a6.485,6.485,0,1,1,0-12.971h.509a1,1,0,0,1,0,2h-.509a4.487,4.487,0,1,0,0,8.974h8.09a1,1,0,0,1,0,2" transform="translate(-202.026 -71.882)"/>
        <path id="Trazado_771275" data-name="Trazado 771275" d="M292.959,113.939h-3.125a1,1,0,0,1,0-2h3.125a1,1,0,0,1,0,2" transform="translate(-250.361 -97.03)"/>
        <path id="Trazado_771276" data-name="Trazado 771276" d="M198.128,50.033a1,1,0,1,1,0-2,4.06,4.06,0,0,0,4.056-4.055,1,1,0,1,1,2,0,6.06,6.06,0,0,1-6.054,6.053" transform="translate(-170.87 -37.256)"/>
        <path id="Trazado_771277" data-name="Trazado 771277" d="M220.847,198.2h0a11.964,11.964,0,0,0-16.92,0l-1.1,1.1-1.1-1.1a11.965,11.965,0,0,0-16.92,16.92l13.847,13.847a5.9,5.9,0,0,0,8.349,0l13.847-13.847a11.964,11.964,0,0,0,0-16.92" transform="translate(-157.149 -168.765)" fill="#fd4755"/>
        <path id="Trazado_771278" data-name="Trazado 771278" d="M202.428,230.331a5.953,5.953,0,0,1-4.222-1.746l-13.847-13.847a12.031,12.031,0,0,1,17.015-17.015l1.054,1.054,1.054-1.054A12.031,12.031,0,1,1,220.5,214.738L206.65,228.585a5.953,5.953,0,0,1-4.222,1.746m-9.562-36a11.9,11.9,0,0,0-8.413,20.311L198.3,228.491a5.844,5.844,0,0,0,8.255,0L220.4,214.644a11.9,11.9,0,1,0-16.826-16.826l-1.148,1.149-1.149-1.149a11.82,11.82,0,0,0-8.413-3.485" transform="translate(-156.752 -168.332)" fill="#fe646f"/>
        <path id="Trazado_771279" data-name="Trazado 771279" d="M203.558,230.657a5.89,5.89,0,0,1-4.9-1.684L184.81,215.127A11.966,11.966,0,0,1,196.2,195.066a11.977,11.977,0,0,0-6.727,10.77,11.914,11.914,0,0,0,1.818,6.327l10.376,16.608a5.881,5.881,0,0,0,1.888,1.886" transform="translate(-157.156 -168.767)" fill="#fb2b3a"/>
        <path id="Trazado_771280" data-name="Trazado 771280" d="M175.92,206.226a1,1,0,0,1-.906-.577,13.059,13.059,0,0,1-1.213-5.483A12.964,12.964,0,0,1,195.931,191l.4.4.4-.4a12.893,12.893,0,0,1,9.032-3.8h.138a12.884,12.884,0,0,1,8.956,3.593,1,1,0,1,1-1.381,1.444,10.9,10.9,0,0,0-7.575-3.038h-.117a10.905,10.905,0,0,0-7.639,3.21l-1.1,1.1a1,1,0,0,1-1.413,0l-1.1-1.1A10.969,10.969,0,0,0,176.824,204.8a1,1,0,0,1-.9,1.422" transform="translate(-150.65 -162.267)"/>
        <path id="Trazado_771281" data-name="Trazado 771281" d="M232.636,271.589a6.882,6.882,0,0,1-4.881-2.018L215.984,257.8a1,1,0,0,1,1.413-1.413l11.771,11.771a4.91,4.91,0,0,0,6.937,0l13.847-13.847a10.969,10.969,0,0,0,2.28-12.185,1,1,0,1,1,1.828-.807,12.968,12.968,0,0,1-2.694,14.405L237.518,269.57a6.883,6.883,0,0,1-4.881,2.018" transform="translate(-186.96 -208.657)"/>
        <path id="Trazado_771282" data-name="Trazado 771282" d="M77.295,338.363a3.277,3.277,0,0,1-2.649-1.348l-7.252-9.957a3.277,3.277,0,0,1,5.3-3.858l4.035,5.54,5.845-12.071a3.277,3.277,0,0,1,5.9,2.856l-8.226,16.99a3.277,3.277,0,0,1-2.657,1.836c-.1.008-.2.013-.292.013" transform="translate(-57.873 -272.883)" fill="#6fd7a3"/>
        <path id="Trazado_771283" data-name="Trazado 771283" d="M70.787,332.871a4.29,4.29,0,0,1-3.457-1.759l-7.252-9.957a4.276,4.276,0,0,1,6.914-5.034l3.053,4.193,5.119-10.572a4.276,4.276,0,0,1,7.7,3.727L77.089,325.39a1,1,0,0,1-1.8-.871L81.064,312.6a2.278,2.278,0,0,0-4.1-1.985l-5.845,12.071a1,1,0,0,1-1.707.153l-4.034-5.54a2.278,2.278,0,1,0-3.684,2.681l7.252,9.958a2.286,2.286,0,0,0,1.842.937c.069,0,.135,0,.2-.009a2.293,2.293,0,0,0,1.854-1.277l.429-.886a1,1,0,0,1,1.8.871l-.429.886a4.3,4.3,0,0,1-3.468,2.4c-.117.011-.247.017-.381.017" transform="translate(-51.364 -266.393)"/>
      </g>
    </g>
  </g>
</svg>
