<svg xmlns="http://www.w3.org/2000/svg" width="75.203" height="75.203" viewBox="0 0 75.203 75.203">
  <g id="Grupo_1071677" data-name="Grupo 1071677" transform="translate(-184 -1136.203)">
    <g id="Grupo_995637" data-name="Grupo 995637" transform="translate(3 633.203)">
      <circle id="Elipse_8159" data-name="Elipse 8159" cx="37.602" cy="37.602" r="37.602" transform="translate(181 503)" fill="#ffd357"/>
    </g>
    <g id="saludable" transform="translate(122.414 1141.202)">
      <g id="Grupo_1071732" data-name="Grupo 1071732" transform="translate(77.546 0.962)">
        <path id="Trazado_771284" data-name="Trazado 771284" d="M186.971,291.862H178.7L175.066,275.1l-3.636,16.759h-8.268l4.038-23.35h15.732Z" transform="translate(-153.021 -235.043)" fill="#60b7ff"/>
        <path id="Trazado_771285" data-name="Trazado 771285" d="M203.48,319.913H204.9l-3.636,16.759h-3.879l3.116-14.359A3.045,3.045,0,0,1,203.48,319.913Z" transform="translate(-182.858 -279.853)" fill="#26a6fe"/>
        <path id="Trazado_771286" data-name="Trazado 771286" d="M295.009,291.862h-3.879l-4.038-23.35h3.879Z" transform="translate(-261.059 -235.043)" fill="#26a6fe"/>
        <path id="Trazado_771287" data-name="Trazado 771287" d="M223.163,19.206h0a4.829,4.829,0,0,1-4.829-4.829v-2.22a3.726,3.726,0,0,1,3.726-3.726h2.207a3.726,3.726,0,0,1,3.726,3.726v2.22A4.829,4.829,0,0,1,223.163,19.206Z" transform="translate(-201.118 -8.312)" fill="#ffdfcf"/>
        <path id="Trazado_771288" data-name="Trazado 771288" d="M247.638,12.157V14.28a4.893,4.893,0,0,1-4.807,4.926,4.8,4.8,0,0,1-1.962-.406,4.829,4.829,0,0,0,2.89-4.424V11.1c0-1.472-.582-2.665-2.054-2.665h2.207A3.726,3.726,0,0,1,247.638,12.157Z" transform="translate(-220.764 -8.312)" fill="#ffcebf"/>
        <path id="Trazado_771289" data-name="Trazado 771289" d="M188.044,92.407l-3.015,3.014a2.867,2.867,0,0,0-.84,2.027v14.26H168.457V97.448a2.866,2.866,0,0,0-.84-2.027L164.6,92.408l4.379-4.379,1.463,1.463a8.313,8.313,0,0,0,5.878,2.435h0a8.314,8.314,0,0,0,5.877-2.434l1.465-1.464Z" transform="translate(-154.277 -77.703)" fill="#fee97d"/>
        <path id="Trazado_771290" data-name="Trazado 771290" d="M294.824,108.988,291.81,112a2.866,2.866,0,0,0-.841,2.028v14.26H287.09V114.03a2.866,2.866,0,0,1,.841-2.028l4.954-4.954Z" transform="translate(-261.058 -94.283)" fill="#fedf30"/>
        <circle id="Elipse_8227" data-name="Elipse 8227" cx="10.714" cy="10.714" r="10.714" transform="translate(11.332 18.632)" fill="#70d162"/>
        <path id="Trazado_771291" data-name="Trazado 771291" d="M253.526,163.518a10.726,10.726,0,0,1-12.653,10.539,10.717,10.717,0,0,0,0-21.079,10.726,10.726,0,0,1,12.653,10.54Z" transform="translate(-220.767 -134.171)" fill="#58c945"/>
        <path id="Trazado_771292" data-name="Trazado 771292" d="M206.759,206.514l-2.126-2.126a1.928,1.928,0,0,0-2.727,0h0a1.928,1.928,0,0,0,0,2.727l3.66,3.66a2.12,2.12,0,0,0,3,0l5.564-5.564a1.928,1.928,0,0,0,0-2.727h0a1.928,1.928,0,0,0-2.727,0l-4.03,4.03A.433.433,0,0,1,206.759,206.514Z" transform="translate(-186.304 -176.99)" fill="#dcf5f8"/>
        <path id="Trazado_771293" data-name="Trazado 771293" d="M327.059,12.786,317.641,22.2l-4.379-4.379,9.418-9.419a3.1,3.1,0,0,1,4.379,4.379Z" transform="translate(-283.874 -7.501)" fill="#ffdfcf"/>
        <path id="Trazado_771294" data-name="Trazado 771294" d="M343.636,12.788l-9.418,9.419-1.94-1.94,7.478-7.479a3.1,3.1,0,0,0,0-4.378,2.912,2.912,0,0,0-.25-.224,3.1,3.1,0,0,1,4.129,4.6Z" transform="translate(-300.452 -7.502)" fill="#ffcebf"/>
        <path id="Trazado_771295" data-name="Trazado 771295" d="M98.778,17.826,94.4,22.2,84.98,12.786a3.1,3.1,0,0,1,4.379-4.379Z" transform="translate(-84.074 -7.501)" fill="#ffdfcf"/>
        <path id="Trazado_771296" data-name="Trazado 771296" d="M293.168,457.518h-5.744a1.953,1.953,0,0,1-1.937-1.71l-1.129-5.2h8.268l2.039,4.611A1.638,1.638,0,0,1,293.168,457.518Z" transform="translate(-258.676 -393.79)" fill="#918291"/>
        <path id="Trazado_771297" data-name="Trazado 771297" d="M323.006,457.519h-3.879a1.638,1.638,0,0,0,1.5-2.3l-2.039-4.611h3.879l2.039,4.611A1.638,1.638,0,0,1,323.006,457.519Z" transform="translate(-288.514 -393.791)" fill="#7a6d79"/>
        <path id="Trazado_771298" data-name="Trazado 771298" d="M156.606,450.608l-1.129,5.2a1.953,1.953,0,0,1-1.937,1.71H147.8a1.638,1.638,0,0,1-1.5-2.3l2.039-4.611h8.268Z" transform="translate(-138.197 -393.79)" fill="#918291"/>
        <path id="Trazado_771299" data-name="Trazado 771299" d="M180.422,450.608l-1.129,5.2a1.953,1.953,0,0,1-1.937,1.71h-3.879a1.953,1.953,0,0,0,1.937-1.71l1.129-5.2Z" transform="translate(-162.013 -393.79)" fill="#7a6d79"/>
      </g>
      <g id="Grupo_1071733" data-name="Grupo 1071733" transform="translate(76.586 0.001)">
        <path id="Trazado_771300" data-name="Trazado 771300" d="M166.155,311.057h-5.745a2.921,2.921,0,0,1-2.891-2.55l-3.81-17.547-3.825,17.63a2.9,2.9,0,0,1-2.877,2.467h-5.745a2.6,2.6,0,0,1-2.377-3.649l1.991-4.5,2.651-15.331a.962.962,0,0,1,1.9.328l-2.671,15.447a.961.961,0,0,1-.068.225l-2.039,4.611a.676.676,0,0,0,.617.948h5.745a.994.994,0,0,0,.983-.868l4.779-22.042a.962.962,0,0,1,1.88,0l4.765,21.959a1.025,1.025,0,0,0,1,.952h5.745a.676.676,0,0,0,.617-.949l-2.039-4.611a.961.961,0,0,1-.068-.225l-3.584-20.722a.962.962,0,0,1,1.9-.328L166.54,302.9l1.991,4.5a2.6,2.6,0,0,1-2.376,3.65Z" transform="translate(-130.703 -245.405)"/>
        <path id="Trazado_771301" data-name="Trazado 771301" d="M216.629,13.63a5.8,5.8,0,0,1-5.791-5.791V5.619A4.693,4.693,0,0,1,215.526.931h2.207a4.693,4.693,0,0,1,4.688,4.688v2.22A5.8,5.8,0,0,1,216.629,13.63Zm-1.1-10.775a2.767,2.767,0,0,0-2.764,2.764v2.22a3.868,3.868,0,0,0,7.735,0V5.619a2.767,2.767,0,0,0-2.764-2.764Z" transform="translate(-193.623 -0.812)"/>
        <path id="Trazado_771302" data-name="Trazado 771302" d="M177.649,94.2a.962.962,0,0,1-.962-.962V90.91a3.8,3.8,0,0,1,1.122-2.707l2.335-2.334-3.019-3.019-.785.784a9.275,9.275,0,0,1-13.116,0l-.783-.783-3.019,3.019,2.334,2.334a3.8,3.8,0,0,1,1.121,2.707v2.327a.962.962,0,0,1-1.923,0V90.91a1.892,1.892,0,0,0-.558-1.347l-3.014-3.014a.962.962,0,0,1,0-1.36l4.379-4.379a.962.962,0,0,1,1.36,0l1.463,1.463a7.352,7.352,0,0,0,10.4,0l1.465-1.464a.962.962,0,0,1,1.36,0l4.379,4.379a.962.962,0,0,1,0,1.36l-3.015,3.014a1.892,1.892,0,0,0-.558,1.347v2.327A.962.962,0,0,1,177.649,94.2Z" transform="translate(-146.778 -70.203)"/>
        <path id="Trazado_771303" data-name="Trazado 771303" d="M176.622,168.657a11.677,11.677,0,0,1-5.948-21.725.962.962,0,1,1,.981,1.654,9.722,9.722,0,1,0,3.722-1.279.962.962,0,1,1-.243-1.908,11.814,11.814,0,0,1,1.487-.094,11.676,11.676,0,0,1,0,23.351Z" transform="translate(-153.616 -126.674)"/>
        <path id="Trazado_771304" data-name="Trazado 771304" d="M206.235,194.419a2.89,2.89,0,0,1,2.044,4.934l-5.564,5.564a3.082,3.082,0,0,1-4.359,0l-3.66-3.66a2.89,2.89,0,0,1,4.087-4.087l1.753,1.753,3.656-3.656A2.871,2.871,0,0,1,206.235,194.419Zm-5.7,9.477a1.151,1.151,0,0,0,.819-.339l5.564-5.564a.967.967,0,1,0-1.367-1.367l-4.03,4.03a1.395,1.395,0,0,1-1.973,0l-2.126-2.126a.967.967,0,1,0-1.367,1.367l3.66,3.66A1.151,1.151,0,0,0,200.536,203.9Z" transform="translate(-178.814 -169.49)"/>
        <path id="Trazado_771305" data-name="Trazado 771305" d="M311.1,16.643a.962.962,0,0,1-.68-.282l-4.379-4.379a.962.962,0,0,1,0-1.36l5.2-5.2a.962.962,0,1,1,1.36,1.36L308.084,11.3l3.019,3.019,8.738-8.739a2.134,2.134,0,1,0-3.018-3.019l-.994.994a.962.962,0,0,1-1.36-1.36l.994-.995A4.058,4.058,0,1,1,321.2,6.942l-9.418,9.419A.962.962,0,0,1,311.1,16.643Z" transform="translate(-276.376 -0.015)"/>
        <path id="Trazado_771306" data-name="Trazado 771306" d="M87.872,16.628a.959.959,0,0,1-.68-.282L77.772,6.927a4.058,4.058,0,0,1,5.739-5.739l9.419,9.419a.962.962,0,0,1,0,1.36l-4.379,4.379A.959.959,0,0,1,87.872,16.628Zm-7.23-14.7a2.134,2.134,0,0,0-1.51,3.643l8.739,8.739,3.019-3.019L82.151,2.549A2.12,2.12,0,0,0,80.642,1.924Z" transform="translate(-76.586 -0.001)"/>
        <path id="Línea_1311" data-name="Línea 1311" d="M1.729-5.577H-6.538A.962.962,0,0,1-7.5-6.538.962.962,0,0,1-6.538-7.5H1.729a.962.962,0,0,1,.962.962A.962.962,0,0,1,1.729-5.577Z" transform="translate(33.18 64.318)"/>
        <path id="Línea_1312" data-name="Línea 1312" d="M-6.538-5.576A.962.962,0,0,1-7.5-6.538.962.962,0,0,1-6.538-7.5H1.729a.962.962,0,0,1,.962.962.962.962,0,0,1-.962.962Z" transform="translate(17.64 64.318)"/>
      </g>
    </g>
  </g>
</svg>
