<svg xmlns="http://www.w3.org/2000/svg" width="75.203" height="75.203" viewBox="0 0 75.203 75.203">
  <g id="Grupo_1071678" data-name="Grupo 1071678" transform="translate(-184 -1136.203)">
    <g id="Grupo_995637" data-name="Grupo 995637" transform="translate(3 633.203)">
      <circle id="Elipse_8159" data-name="Elipse 8159" cx="37.602" cy="37.602" r="37.602" transform="translate(181 503)" fill="#ffd357"/>
    </g>
    <g id="saludable_1_" data-name="saludable (1)" transform="translate(189 1130.862)">
      <g id="Grupo_1071744" data-name="Grupo 1071744" transform="translate(0.944 13.284)">
        <g id="Grupo_1071737" data-name="Grupo 1071737" transform="translate(0 39.204)">
          <g id="Grupo_1071736" data-name="Grupo 1071736" transform="translate(5.996)">
            <g id="Grupo_1071734" data-name="Grupo 1071734" transform="translate(9.181)">
              <path id="Trazado_771300" data-name="Trazado 771300" d="M141.031,342.978H128.112V332.925a1.544,1.544,0,0,1,1.541-1.541,5.062,5.062,0,0,1,5.06,5.062v.214Z" transform="translate(-128.112 -331.384)" fill="#fdb0a0"/>
            </g>
            <g id="Grupo_1071735" data-name="Grupo 1071735">
              <path id="Trazado_771301" data-name="Trazado 771301" d="M68.068,342.978H58.9l-3.749-3.749v-6.3a1.544,1.544,0,0,1,1.541-1.541,5.062,5.062,0,0,1,5.06,5.062v.214Z" transform="translate(-55.149 -331.384)" fill="#ffcec0"/>
            </g>
          </g>
          <path id="Trazado_771302" data-name="Trazado 771302" d="M51.018,342.6A3.091,3.091,0,0,1,48.29,341.5a6.559,6.559,0,0,0-5.013-2.329h-1.42a7.9,7.9,0,0,1-5.588-2.315l-4.376-4.376a3.73,3.73,0,0,0-5.274,0h0a2.547,2.547,0,0,0,0,3.6l5.063,5.063a4.96,4.96,0,0,1,1.162,1.835H20.42L14.1,336.665v-.215a5.061,5.061,0,0,0-5.061-5.061A1.541,1.541,0,0,0,7.5,332.93v5.2a2.662,2.662,0,0,0,.78,1.883l10.376,10.376a4.209,4.209,0,0,0,2.976,1.233H70.04V340.3Z" transform="translate(-7.5 -331.388)" fill="#ffdfd0"/>
          <path id="Trazado_771303" data-name="Trazado 771303" d="M470.577,402.735v10.8h4.269V402.22Z" transform="translate(-412.306 -393.306)" fill="#ffcec0"/>
        </g>
        <g id="Grupo_1071743" data-name="Grupo 1071743" transform="translate(9.139 0)">
          <g id="Grupo_1071738" data-name="Grupo 1071738">
            <path id="Trazado_771304" data-name="Trazado 771304" d="M120.662,23.555h0a12.716,12.716,0,0,0-17.983,0l-.424.424-.424-.424a12.716,12.716,0,0,0-17.983,0h0a12.716,12.716,0,0,0,0,17.983l17.29,17.29a1.579,1.579,0,0,0,2.233,0l17.29-17.291A12.716,12.716,0,0,0,120.662,23.555Z" transform="translate(-80.124 -19.831)" fill="#fb3a82"/>
            <path id="Trazado_771305" data-name="Trazado 771305" d="M252.544,41.618l-17.291,17.29a1.578,1.578,0,0,1-2.232,0l-2.031-2.031,16.517-16.518a12.722,12.722,0,0,0-3.445-20.437,12.715,12.715,0,0,1,8.483,21.7Z" transform="translate(-212.006 -19.911)" fill="#e01058"/>
          </g>
          <g id="Grupo_1071742" data-name="Grupo 1071742" transform="translate(29.458 19.612)">
            <g id="Grupo_1071739" data-name="Grupo 1071739">
              <path id="Trazado_771306" data-name="Trazado 771306" d="M332.515,177.23a.624.624,0,0,0-.44-.554,38.226,38.226,0,0,0-17.271,0,.625.625,0,0,0-.44.554c-.454,6.551-.284,15.007,8.868,18.27a.617.617,0,0,0,.414,0C332.8,192.236,332.969,183.781,332.515,177.23Z" transform="translate(-314.228 -175.687)" fill="#27d1b3"/>
            </g>
            <g id="Grupo_1071740" data-name="Grupo 1071740" transform="translate(7.228 0.274)">
              <path id="Trazado_771307" data-name="Trazado 771307" d="M373.86,197.4a.607.607,0,0,1-.413,0,16.1,16.1,0,0,1-1.776-.752c7.422-3.773,7.539-12.292,7.117-18.4a.64.64,0,0,0-.173-.39,21.552,21.552,0,0,1,3.674.715.622.622,0,0,1,.44.554C383.183,185.682,383.013,194.137,373.86,197.4Z" transform="translate(-371.67 -177.861)" fill="#20b69f"/>
            </g>
            <path id="Trazado_771308" data-name="Trazado 771308" d="M332.77,181.852h-6.439v-6.086c-.831-.049-1.747-.079-2.753-.079s-1.922.03-2.753.079v6.086h-6.439a20.5,20.5,0,0,0,.87,5.506h5.569v6.978a15.553,15.553,0,0,0,2.546,1.164.617.617,0,0,0,.414,0,15.551,15.551,0,0,0,2.546-1.164v-6.978H331.9A20.5,20.5,0,0,0,332.77,181.852Z" transform="translate(-314.367 -175.687)" fill="#e8edf1"/>
            <g id="Grupo_1071741" data-name="Grupo 1071741" transform="translate(7.228 6.165)">
              <path id="Trazado_771309" data-name="Trazado 771309" d="M373.86,298.457a15.556,15.556,0,0,0,2.547-1.164v-3.827a11.934,11.934,0,0,1-4.736,4.24,16.058,16.058,0,0,0,1.776.752A.607.607,0,0,0,373.86,298.457Z" transform="translate(-371.67 -284.809)" fill="#c5d3dd"/>
              <path id="Trazado_771310" data-name="Trazado 771310" d="M426.058,224.679h-3.977a21.52,21.52,0,0,1-.978,5.506h4.085A20.492,20.492,0,0,0,426.058,224.679Z" transform="translate(-414.883 -224.679)" fill="#c5d3dd"/>
            </g>
          </g>
        </g>
      </g>
      <g id="Grupo_1071756" data-name="Grupo 1071756" transform="translate(0 12.341)">
        <g id="Grupo_1071748" data-name="Grupo 1071748" transform="translate(0 39.203)">
          <g id="Grupo_1071747" data-name="Grupo 1071747" transform="translate(5.996)">
            <g id="Grupo_1071745" data-name="Grupo 1071745" transform="translate(9.181)">
              <path id="Trazado_771311" data-name="Trazado 771311" d="M121.556,333.539a.944.944,0,0,1-.944-.944V326.37a2.487,2.487,0,0,1,2.485-2.485,5.988,5.988,0,0,1,3.175.908.944.944,0,0,1-1,1.6,4.1,4.1,0,0,0-2.176-.622.6.6,0,0,0-.6.6V332.6A.944.944,0,0,1,121.556,333.539Z" transform="translate(-120.612 -323.885)"/>
            </g>
            <g id="Grupo_1071746" data-name="Grupo 1071746">
              <path id="Trazado_771312" data-name="Trazado 771312" d="M61.512,337.366a.941.941,0,0,1-.667-.276l-6.317-6.317a.944.944,0,0,1-.276-.667v-.214a4.122,4.122,0,0,0-4.117-4.118.6.6,0,0,0-.6.6v1.014a.944.944,0,0,1-1.888,0V326.37a2.487,2.487,0,0,1,2.485-2.485,6.012,6.012,0,0,1,6,5.826l6.044,6.044a.944.944,0,0,1-.667,1.611Z" transform="translate(-47.649 -323.885)"/>
            </g>
          </g>
          <path id="Trazado_771313" data-name="Trazado 771313" d="M154.21,339.043a.944.944,0,0,1-.944-.944,3.99,3.99,0,0,0-1.176-2.84l-5.063-5.063a3.491,3.491,0,0,1,0-4.937,4.673,4.673,0,0,1,6.609,0l4.376,4.376a6.914,6.914,0,0,0,4.921,2.038h1.42a7.488,7.488,0,0,1,5.734,2.664,2.145,2.145,0,0,0,1.894.766L191,332.809a.944.944,0,0,1,.226,1.874l-19.021,2.293a4.027,4.027,0,0,1-3.563-1.423,5.6,5.6,0,0,0-4.291-1.993h-1.42a8.789,8.789,0,0,1-6.256-2.591l-4.376-4.376a2.786,2.786,0,0,0-3.94,0,1.6,1.6,0,0,0,0,2.268l5.063,5.063a5.865,5.865,0,0,1,1.729,4.174A.944.944,0,0,1,154.21,339.043Z" transform="translate(-127.632 -323.889)"/>
          <path id="Trazado_771314" data-name="Trazado 771314" d="M19.234,346.009H15.075a5.119,5.119,0,0,1-3.644-1.509L1.056,334.124A3.582,3.582,0,0,1,0,331.574v-5.2a2.488,2.488,0,0,1,2.485-2.485,6.012,6.012,0,0,1,6,5.826l5.767,5.767H26.288a.944.944,0,1,1,0,1.888H13.863a.944.944,0,0,1-.667-.276l-6.317-6.317a.944.944,0,0,1-.276-.667v-.215a4.122,4.122,0,0,0-4.117-4.117.6.6,0,0,0-.6.6v5.2a1.707,1.707,0,0,0,.5,1.215l10.376,10.376a3.244,3.244,0,0,0,2.309.956h4.159a.944.944,0,1,1,0,1.888Z" transform="translate(0 -323.889)"/>
          <path id="Línea_1311" data-name="Línea 1311" d="M33.562-5.612H-6.556A.944.944,0,0,1-7.5-6.556.944.944,0,0,1-6.556-7.5H33.562a.944.944,0,0,1,.944.944A.944.944,0,0,1,33.562-5.612Z" transform="translate(29.921 27.732)"/>
        </g>
        <g id="Grupo_1071755" data-name="Grupo 1071755" transform="translate(9.139 0)">
          <g id="Grupo_1071752" data-name="Grupo 1071752">
            <path id="Trazado_771315" data-name="Trazado 771315" d="M125.631,108.331a.944.944,0,0,1-.9-.655l-4.27-13.292-1.3,5.264a.944.944,0,0,1-.916.718H110.8a.944.944,0,1,1,0-1.888h6.712l1.92-7.776a.944.944,0,0,1,1.815-.062l4.084,12.712,2.841-17.611a.944.944,0,0,1,1.853-.054L132.8,98.214h2.767a.944.944,0,1,1,0,1.888h-3.524a.944.944,0,0,1-.921-.739l-1.878-8.456-2.683,16.632a.944.944,0,0,1-.861.791Z" transform="translate(-105.168 -75.811)"/>
            <g id="Grupo_1071751" data-name="Grupo 1071751" transform="translate(30.348 10.994)">
              <g id="Grupo_1071749" data-name="Grupo 1071749" transform="translate(1.738)">
                <path id="Línea_1312" data-name="Línea 1312" d="M-6.556-2.137A.944.944,0,0,1-7.5-3.081V-6.556A.944.944,0,0,1-6.556-7.5a.944.944,0,0,1,.944.944v3.475A.944.944,0,0,1-6.556-2.137Z" transform="translate(7.5 7.5)"/>
              </g>
              <g id="Grupo_1071750" data-name="Grupo 1071750" transform="translate(0 1.738)">
                <path id="Línea_1313" data-name="Línea 1313" d="M-3.081-5.612H-6.556A.944.944,0,0,1-7.5-6.556.944.944,0,0,1-6.556-7.5h3.475a.944.944,0,0,1,.944.944A.944.944,0,0,1-3.081-5.612Z" transform="translate(7.5 7.5)"/>
              </g>
            </g>
            <path id="Trazado_771316" data-name="Trazado 771316" d="M320.331,33.719a.944.944,0,0,1-.8-1.447,11.775,11.775,0,0,0-11.925-17.881.944.944,0,1,1-.312-1.861,13.663,13.663,0,0,1,13.834,20.749A.943.943,0,0,1,320.331,33.719Z" transform="translate(-277.078 -12.341)"/>
            <path id="Trazado_771317" data-name="Trazado 771317" d="M192.2,275.112a2.515,2.515,0,0,1-1.784-.738l-7.123-7.123a.944.944,0,1,1,1.335-1.335l7.123,7.123a.636.636,0,0,0,.9,0l7.1-7.1a.944.944,0,0,1,1.335,1.335l-7.1,7.1A2.515,2.515,0,0,1,192.2,275.112Z" transform="translate(-169.129 -233.766)"/>
            <path id="Trazado_771318" data-name="Trazado 771318" d="M84.538,43.218a.941.941,0,0,1-.667-.276L76.625,35.7A13.66,13.66,0,0,1,95.7,16.14,13.655,13.655,0,0,1,98.659,14a.944.944,0,1,1,.892,1.663,11.781,11.781,0,0,0-2.761,2.054l-.424.424a.944.944,0,0,1-1.335,0l-.424-.424A11.772,11.772,0,1,0,77.96,34.361l7.246,7.246a.944.944,0,0,1-.667,1.611Z" transform="translate(-72.624 -12.378)"/>
          </g>
          <g id="Grupo_1071754" data-name="Grupo 1071754" transform="translate(29.436 19.611)">
            <path id="Trazado_771319" data-name="Trazado 771319" d="M402.753,269.8a.944.944,0,0,1-.944-.944v-6.978a.944.944,0,0,1,.944-.944h5.569a.944.944,0,1,1,0,1.888H403.7v6.034A.944.944,0,0,1,402.753,269.8Z" transform="translate(-389.822 -249.262)"/>
            <path id="Trazado_771320" data-name="Trazado 771320" d="M320.313,269.8a.944.944,0,0,1-.944-.944v-6.034h-4.625a.944.944,0,0,1,0-1.888h5.569a.944.944,0,0,1,.944.944v6.978A.944.944,0,0,1,320.313,269.8Z" transform="translate(-312.888 -249.262)"/>
            <path id="Trazado_771321" data-name="Trazado 771321" d="M314.271,176.788h-6.439a.944.944,0,1,1,0-1.888h5.495v-5.142a.944.944,0,0,1,1.888,0v6.086A.944.944,0,0,1,314.271,176.788Z" transform="translate(-306.846 -168.736)"/>
            <path id="Trazado_771322" data-name="Trazado 771322" d="M409.191,176.788h-6.439a.944.944,0,0,1-.944-.944v-6.086a.944.944,0,1,1,1.888,0V174.9h5.495a.944.944,0,1,1,0,1.888Z" transform="translate(-389.822 -168.736)"/>
            <g id="Grupo_1071753" data-name="Grupo 1071753">
              <path id="Trazado_771323" data-name="Trazado 771323" d="M316.73,168.187a31.482,31.482,0,0,1,8.911,1.029,1.577,1.577,0,0,1,1.106,1.392c.348,5.017,1.071,15.458-9.493,19.224a1.568,1.568,0,0,1-1.047,0c-10.564-3.767-9.841-14.207-9.493-19.224a1.577,1.577,0,0,1,1.106-1.392A31.482,31.482,0,0,1,316.73,168.187Zm8.149,2.773a37.956,37.956,0,0,0-16.3,0c-.474,7.176.235,14.171,8.149,17.055C324.643,185.131,325.352,178.136,324.878,170.96Z" transform="translate(-306.552 -168.187)"/>
            </g>
          </g>
        </g>
      </g>
    </g>
  </g>
</svg>
