<svg xmlns="http://www.w3.org/2000/svg" xmlns:xlink="http://www.w3.org/1999/xlink" width="75.203" height="75.203" viewBox="0 0 75.203 75.203">
  <defs>
    <clipPath id="clip-path">
      <rect id="Rectángulo_356272" data-name="Rectángulo 356272" width="61" height="61" fill="none"/>
    </clipPath>
  </defs>
  <g id="Grupo_1071674" data-name="Grupo 1071674" transform="translate(-184 -1136.203)">
    <g id="Grupo_995637" data-name="Grupo 995637" transform="translate(3 633.203)">
      <circle id="Elipse_8159" data-name="Elipse 8159" cx="37.602" cy="37.602" r="37.602" transform="translate(181 503)" fill="#ffd357"/>
    </g>
    <g id="Grupo_1071730" data-name="Grupo 1071730" transform="translate(191 1143.203)">
      <g id="Grupo_1071730-2" data-name="Grupo 1071730" clip-path="url(#clip-path)">
        <path id="Trazado_771220" data-name="Trazado 771220" d="M325.99,371.293h-7.527a7.732,7.732,0,0,0-7.732,7.732v5.746h22.991v-5.746A7.732,7.732,0,0,0,325.99,371.293Z" transform="translate(-273.841 -327.213)" fill="#e56ab9"/>
        <path id="Trazado_771221" data-name="Trazado 771221" d="M315.9,382.446a2.456,2.456,0,0,1-2.456-2.455v-.979a7.72,7.72,0,0,1,7.721-7.718h-2.712a7.72,7.72,0,0,0-7.721,7.718v5.759h22.991v-2.324Z" transform="translate(-273.841 -327.213)" fill="#bd50b6"/>
        <path id="Trazado_771222" data-name="Trazado 771222" d="M343.616,206.859H331.242a3.26,3.26,0,0,1-3.26-3.26v-4.751a9.447,9.447,0,0,1,18.894,0V203.6a3.26,3.26,0,0,1-3.26,3.26" transform="translate(-289.044 -166.914)" fill="#898989"/>
        <path id="Trazado_771223" data-name="Trazado 771223" d="M330.824,203.6v-4.757a9.446,9.446,0,0,1,8.026-9.337,9.452,9.452,0,0,0-10.868,9.337V203.6a3.259,3.259,0,0,0,3.26,3.259h2.842A3.26,3.26,0,0,1,330.824,203.6Z" transform="translate(-289.045 -166.912)" fill="#606060"/>
        <path id="Trazado_771224" data-name="Trazado 771224" d="M386.9,327.792h-6.433v4.293a3.216,3.216,0,0,0,6.433,0Z" transform="translate(-335.297 -288.876)" fill="#ffdecf"/>
        <path id="Trazado_771225" data-name="Trazado 771225" d="M383.049,332.086v-4.294h-2.583v4.294a3.217,3.217,0,0,0,4.508,2.944,3.215,3.215,0,0,1-1.925-2.944" transform="translate(-335.297 -288.876)" fill="#f9bcaa"/>
        <path id="Trazado_771226" data-name="Trazado 771226" d="M365.37,270.169a5.683,5.683,0,0,1-5.683-5.683v-5.364h11.366v5.364a5.683,5.683,0,0,1-5.683,5.683" transform="translate(-316.985 -228.359)" fill="#ffdecf"/>
        <path id="Trazado_771227" data-name="Trazado 771227" d="M362.271,264.488v-5.366h-2.583v5.366a5.682,5.682,0,0,0,6.975,5.532,5.682,5.682,0,0,1-4.392-5.532" transform="translate(-316.985 -228.359)" fill="#f9bcaa"/>
        <path id="Trazado_771228" data-name="Trazado 771228" d="M374.924,426.6h-3.932a.9.9,0,1,1,0-1.808h3.932a.9.9,0,1,1,0,1.808" transform="translate(-326.151 -374.359)" fill="#fff"/>
        <path id="Trazado_771229" data-name="Trazado 771229" d="M432.562,426.6H431.5a.9.9,0,1,1,0-1.808h1.059a.9.9,0,1,1,0,1.808" transform="translate(-379.478 -374.359)" fill="#fff"/>
        <path id="Trazado_771230" data-name="Trazado 771230" d="M22.875,371.293H15.348a7.732,7.732,0,0,0-7.732,7.732v5.746H30.607v-5.746a7.732,7.732,0,0,0-7.732-7.732" transform="translate(-6.712 -327.213)" fill="#fef2a8"/>
        <path id="Trazado_771231" data-name="Trazado 771231" d="M12.395,382.316a2.066,2.066,0,0,1-2.067-2.066v-1.24a7.72,7.72,0,0,1,7.721-7.718H15.337a7.72,7.72,0,0,0-7.721,7.718v5.759H30.607v-2.453Z" transform="translate(-6.712 -327.212)" fill="#eeb6a8"/>
        <path id="Trazado_771232" data-name="Trazado 771232" d="M38.453,205.117H33.912a6.925,6.925,0,0,1-6.925-6.925v-.018a9.2,9.2,0,1,1,18.391,0v.018a6.925,6.925,0,0,1-6.925,6.925" transform="translate(-23.783 -166.542)" fill="#898989"/>
        <path id="Trazado_771233" data-name="Trazado 771233" d="M29.7,198.194v-.025a9.194,9.194,0,0,1,7.839-9.092,9.289,9.289,0,0,0-1.356-.1,9.194,9.194,0,0,0-9.2,9.192v.025a6.923,6.923,0,0,0,6.925,6.922h2.712A6.923,6.923,0,0,1,29.7,198.194Z" transform="translate(-23.785 -166.542)" fill="#606060"/>
        <path id="Trazado_771234" data-name="Trazado 771234" d="M83.784,327.792H77.351v4.293a3.216,3.216,0,0,0,6.433,0Z" transform="translate(-68.168 -288.876)" fill="#ffdecf"/>
        <path id="Trazado_771235" data-name="Trazado 771235" d="M79.934,332.086v-4.294H77.351v4.294a3.217,3.217,0,0,0,4.508,2.944,3.215,3.215,0,0,1-1.925-2.944" transform="translate(-68.168 -288.876)" fill="#f9bcaa"/>
        <path id="Trazado_771236" data-name="Trazado 771236" d="M62.256,253.343a5.682,5.682,0,0,1-5.683-5.681v-5.108l4.277,1.484.1-4.008,6.985,2.525v5.108a5.682,5.682,0,0,1-5.683,5.681" transform="translate(-49.857 -211.533)" fill="#ffdecf"/>
        <path id="Trazado_771237" data-name="Trazado 771237" d="M59.027,266.405v-4.257l-2.454-.851v5.108a5.682,5.682,0,0,0,6.91,5.546,5.682,5.682,0,0,1-4.456-5.546" transform="translate(-49.857 -230.276)" fill="#f9bcaa"/>
        <path id="Trazado_771238" data-name="Trazado 771238" d="M183.344,387.331v-5.164H177.17v5.164h-2.2a4.911,4.911,0,0,0-4.912,4.91v4.436H190.46v-4.436a4.911,4.911,0,0,0-4.912-4.91Z" transform="translate(-149.864 -336.796)" fill="#80d8ff"/>
        <path id="Trazado_771239" data-name="Trazado 771239" d="M173.8,432.817a1.291,1.291,0,0,1-1.292-1.291v-1.383a4.477,4.477,0,0,1,4.478-4.477h-2.021a4.911,4.911,0,0,0-4.912,4.91v4.436h20.408v-2.195H173.8Z" transform="translate(-149.864 -375.13)" fill="#8c9eff"/>
        <path id="Trazado_771240" data-name="Trazado 771240" d="M218.113,392.538a5.193,5.193,0,0,0,5.1-5.206H221.2v-5.164h-6.174v5.164h-2.017a5.193,5.193,0,0,0,5.1,5.206" transform="translate(-187.72 -336.796)" fill="#ffdecf"/>
        <path id="Trazado_771241" data-name="Trazado 771241" d="M215.592,388.882h.208a1.291,1.291,0,0,0,1.292-1.291v-5.423h-2.066v5.164h-2.017a5.235,5.235,0,0,0,3.946,5.067A5.251,5.251,0,0,1,215.592,388.882Z" transform="translate(-187.72 -336.797)" fill="#f9bcaa"/>
        <path id="Trazado_771242" data-name="Trazado 771242" d="M207.1,296.054a6.585,6.585,0,1,1-6.587,6.585,6.586,6.586,0,0,1,6.587-6.585" transform="translate(-176.709 -260.906)" fill="#ffdecf"/>
        <path id="Trazado_771243" data-name="Trazado 771243" d="M202.968,302.637a6.586,6.586,0,0,1,5.36-6.469,6.585,6.585,0,1,0,0,12.938,6.586,6.586,0,0,1-5.36-6.469" transform="translate(-176.709 -260.904)" fill="#f9bcaa"/>
        <path id="Trazado_771244" data-name="Trazado 771244" d="M239.647,296.054a6.575,6.575,0,0,0-2.2.379l.443,1.546a8.643,8.643,0,0,0,8.15,6.26,6.586,6.586,0,0,0-6.39-8.184" transform="translate(-209.254 -260.906)" fill="#898989"/>
        <path id="Trazado_771245" data-name="Trazado 771245" d="M239.694,296.709l-.181-.631a6.579,6.579,0,0,0-2.071.376l.443,1.546a8.643,8.643,0,0,0,8.15,6.26,6.594,6.594,0,0,0,.193-1.475A8.642,8.642,0,0,1,239.694,296.709Z" transform="translate(-209.254 -260.927)" fill="#606060"/>
        <path id="Trazado_771246" data-name="Trazado 771246" d="M52.506,203.019V201.1c.162-.13.316-.269.464-.413h1.6a4.168,4.168,0,0,0,4.164-4.163v-4.757a10.351,10.351,0,0,0-20.7,0v4.757a4.168,4.168,0,0,0,4.164,4.163h1.6c.149.144.3.283.464.413v1.922a8.641,8.641,0,0,0-8.009,6.476c-.188-.018-.379-.028-.572-.028h-1.3V207.9a7.491,7.491,0,1,0-7.982,0v1.567H25.1c-.194,0-.385.01-.574.029a8.638,8.638,0,0,0-8.006-6.475V201.1a6.616,6.616,0,0,0,2.05-2.829,7.827,7.827,0,0,0,3.929-6.805,10.1,10.1,0,0,0-20.2,0,7.83,7.83,0,0,0,3.93,6.808A6.616,6.616,0,0,0,8.279,201.1v1.927A8.631,8.631,0,0,0,0,211.633v5.759a.9.9,0,0,0,.9.9H19.285v1.42a.9.9,0,0,0,.9.9H40.6a.9.9,0,0,0,.9-.9V218.3H59.881a.9.9,0,0,0,.9-.9v-5.759A8.633,8.633,0,0,0,52.506,203.019Zm-10.027-4.144H42.2a2.358,2.358,0,0,1-2.356-2.355v-4.757a8.543,8.543,0,0,1,17.086,0v4.757a2.358,2.358,0,0,1-2.356,2.355h-.281a6.534,6.534,0,0,0,.681-2.911V190.6a.9.9,0,0,0-.9-.9H42.7a.9.9,0,0,0-.9.9v5.366a6.536,6.536,0,0,0,.681,2.911m1.127-2.911V191.5h9.558v4.463a4.779,4.779,0,0,1-9.558,0m7.091,6.165v.916a2.312,2.312,0,0,1-4.624,0v-.916a6.578,6.578,0,0,0,4.624,0m-14.622-.562a5.685,5.685,0,0,1-.038.646,7.693,7.693,0,0,1-6.536-5.554l-.191-.667a5.68,5.68,0,0,1,6.765,5.576Zm-11.366,0a5.683,5.683,0,0,1,2.9-4.95l.154.539a9.489,9.489,0,0,0,7.777,6.814,5.683,5.683,0,0,1-10.831-2.4Zm2.6,9.707a.9.9,0,0,0,.9-.9v-1.64a7.487,7.487,0,0,0,4.366,0v1.64a.9.9,0,0,0,.9.9h1.015a4.175,4.175,0,0,1-8.2,0ZM5.812,190.855v4.817a5.994,5.994,0,0,1-1.7-4.211,8.291,8.291,0,0,1,16.583,0,5.991,5.991,0,0,1-1.7,4.211v-4.817a.9.9,0,0,0-.6-.85L11.4,187.48a.91.91,0,0,0-1.211.826l-.072,2.773L7.013,190A.933.933,0,0,0,5.812,190.855Zm1.808,5.108v-3.838l3.076,1.067a.91.91,0,0,0,1.2-.83l.072-2.756,5.21,1.883v4.474a4.779,4.779,0,0,1-9.558,0Zm7.091,6.165v.916a2.312,2.312,0,0,1-4.625,0v-.916a6.58,6.58,0,0,0,4.625,0m4.573,13.151v1.208H1.808v-4.855a6.824,6.824,0,0,1,6.817-6.815h.056a4.12,4.12,0,0,0,7.436,0h.056a6.827,6.827,0,0,1,6.6,5.133,5.822,5.822,0,0,0-3.494,5.329m20.408,3.532h-18.6v-3.532a4.013,4.013,0,0,1,3.366-3.954,5.993,5.993,0,0,0,11.868,0,4.013,4.013,0,0,1,3.366,3.954v3.532Zm19.285-2.324H41.5v-1.208a5.822,5.822,0,0,0-3.492-5.328,6.826,6.826,0,0,1,6.6-5.133h.056a4.12,4.12,0,0,0,7.436,0h.056a6.824,6.824,0,0,1,6.817,6.815Z" transform="translate(0 -159.834)"/>
        <path id="Trazado_771247" data-name="Trazado 771247" d="M165.446,11.046v8.672A12.824,12.824,0,0,0,176.2,32.362a12.824,12.824,0,0,0,10.751-12.643V11.046a1.62,1.62,0,0,0-.981-1.487,24.711,24.711,0,0,0-19.54,0A1.62,1.62,0,0,0,165.446,11.046Z" transform="translate(-145.804 -6.649)" fill="#78eac4"/>
        <path id="Trazado_771248" data-name="Trazado 771248" d="M168.161,19.719v-6.1a2.581,2.581,0,0,1,1.64-2.407,24.845,24.845,0,0,1,17.129-.393,1.621,1.621,0,0,0-.964-1.263,24.711,24.711,0,0,0-19.54,0,1.62,1.62,0,0,0-.981,1.487v8.672A12.824,12.824,0,0,0,176.2,32.362a12.963,12.963,0,0,0,1.358-.3,12.819,12.819,0,0,1-9.393-12.341" transform="translate(-145.803 -6.649)" fill="#71afc4"/>
        <path id="Trazado_771249" data-name="Trazado 771249" d="M169.465,26.617a13.775,13.775,0,0,1-11.656-13.548V4.4a2.523,2.523,0,0,1,1.528-2.318,25.717,25.717,0,0,1,20.257,0A2.522,2.522,0,0,1,181.121,4.4v8.672a13.775,13.775,0,0,1-11.656,13.548m0-24.808a23.814,23.814,0,0,0-9.412,1.931.714.714,0,0,0-.433.656v8.672a11.878,11.878,0,0,0,9.845,11.725,11.878,11.878,0,0,0,9.845-11.725V4.4a.714.714,0,0,0-.433-.656A23.811,23.811,0,0,0,169.465,1.809Z" transform="translate(-139.072 0)"/>
        <path id="Trazado_771250" data-name="Trazado 771250" d="M208.957,48.3a6.333,6.333,0,1,1-6.337,6.333,6.335,6.335,0,0,1,6.337-6.333" transform="translate(-178.565 -42.564)" fill="#fff"/>
        <path id="Trazado_771251" data-name="Trazado 771251" d="M210.639,68.094a6.333,6.333,0,0,1-5.4-9.653,6.334,6.334,0,1,0,9.113,8.449,6.309,6.309,0,0,1-3.716,1.2" transform="translate(-178.566 -51.503)" fill="#cecece"/>
        <path id="Trazado_771252" data-name="Trazado 771252" d="M202.237,55.154a7.238,7.238,0,1,1,7.242-7.238,7.248,7.248,0,0,1-7.242,7.238m0-12.667a5.429,5.429,0,1,0,5.432,5.429,5.436,5.436,0,0,0-5.432-5.429" transform="translate(-171.845 -35.849)"/>
        <path id="Trazado_771253" data-name="Trazado 771253" d="M235.989,78.672h-1.164V77.509a.905.905,0,0,0-1.811,0v1.163H231.85a.9.9,0,1,0,0,1.81h1.164v1.163a.905.905,0,0,0,1.811,0V80.482h1.164a.9.9,0,1,0,0-1.81" transform="translate(-203.527 -67.509)"/>
        <path id="Trazado_771254" data-name="Trazado 771254" d="M22.729,136.249a1.035,1.035,0,1,1-1.035,1.035,1.035,1.035,0,0,1,1.035-1.035" transform="translate(-19.118 -120.073)" fill="#e56ab9"/>
        <path id="Trazado_771255" data-name="Trazado 771255" d="M48.2,49.6l.924,1.69,1.691.925a.442.442,0,0,1,0,.776l-1.691.925-.924,1.69a.443.443,0,0,1-.777,0l-.924-1.69-1.691-.925a.442.442,0,0,1,0-.776l1.691-.925.924-1.69a.443.443,0,0,1,.777,0" transform="translate(-39.285 -43.509)" fill="#ff88db"/>
        <path id="Trazado_771256" data-name="Trazado 771256" d="M473.912,146.276a1.035,1.035,0,1,1-1.035,1.035,1.035,1.035,0,0,1,1.035-1.035" transform="translate(-416.737 -128.91)" fill="#e56ab9"/>
        <path id="Trazado_771257" data-name="Trazado 771257" d="M436.407,49.661l-.924,1.69-1.691.925a.442.442,0,0,0,0,.776l1.691.925.924,1.69a.443.443,0,0,0,.777,0l.924-1.69,1.691-.925a.442.442,0,0,0,0-.776l-1.691-.925-.924-1.69a.443.443,0,0,0-.777,0" transform="translate(-382.089 -43.562)" fill="#ff88db"/>
      </g>
    </g>
  </g>
</svg>
