<svg xmlns="http://www.w3.org/2000/svg" xmlns:xlink="http://www.w3.org/1999/xlink" width="190" height="118" viewBox="0 0 190 118">
  <defs>
    <clipPath id="clip-path">
      <rect id="Rect치ngulo_309857" data-name="Rect치ngulo 309857" width="80.107" height="80.189" fill="none"/>
    </clipPath>
  </defs>
  <g id="Grupo_1071596" data-name="Grupo 1071596" transform="translate(-180 -2759)">
    <g id="Grupo_1071595" data-name="Grupo 1071595" transform="translate(-1050 2335)">
      <rect id="Rect치ngulo_312991" data-name="Rect치ngulo 312991" width="190" height="118" rx="17" transform="translate(1230 424)" fill="#ffd357"/>
    </g>
    <g id="Grupo_995639" data-name="Grupo 995639" transform="translate(235 2778)">
      <g id="Grupo_995638" data-name="Grupo 995638" clip-path="url(#clip-path)">
        <path id="Trazado_654265" data-name="Trazado 654265" d="M34.883,3.756c.966-.717,1.248-.717,2.215.043,3.244,2.55,4.085,6.017,3.755,9.919a18.73,18.73,0,0,1-.633,3.47c-.1.374-.1.54.333.622a3.1,3.1,0,0,1,2.469,2.378,1.547,1.547,0,0,0,.5-1.345,34.781,34.781,0,0,1,1.613-10.35,12.9,12.9,0,0,1,4.178-6.38A8.817,8.817,0,0,1,59.092.994a.713.713,0,0,0,.767.031C63.39-.986,68.551.036,71.482,3.911a19.915,19.915,0,0,1,3.476,9c.334,2,.3,4.037.577,6.026.27,1.945.435,3.947,1.587,5.731a19.777,19.777,0,0,1,3.108,7.474,15.187,15.187,0,0,1-.749,7.782,1.07,1.07,0,0,0,.339,1.459c1.86,1.548,2.366,3.71,2.562,6.012.21,2.46.5,4.913.769,7.368.1.9-.215,1.481-.926,1.632-.66.14-1.134-.232-1.412-1.108-.314-2.955-.635-5.91-.941-8.866a4.89,4.89,0,0,0-3.851-4.448c-2.2-.536-4.423-1.018-6.617-1.594-.663-.174-.919-.033-1.176.589a19.455,19.455,0,0,1-7.732,9.39,1.63,1.63,0,0,1-1.945.017A19.646,19.646,0,0,1,55.369,47.9a21.037,21.037,0,0,1-4.66-7.037c-.121-.29-.139-.7-.645-.58q-2.217.538-4.442,1.068c.075.263.234.242.363.268,5.124,1.033,7.551,4.406,6.967,9.572-.158,1.4-.622,2.722-.845,4.1a12.176,12.176,0,0,1-3.977,8.878c-.662.6-.149,1.371-.142,2.061.005.55.55.4.845.472,1.9.491,3.809.929,5.715,1.386a5.238,5.238,0,0,1,4.271,4.782c.212,1.84.411,3.681.616,5.521.006.056.01.112.015.168.07.94-.247,1.522-.953,1.615-.824.108-1.231-.383-1.413-1.123-.208-2.008-.4-4.017-.627-6.023a2.8,2.8,0,0,0-2.277-2.588c-1.957-.487-3.923-.937-5.877-1.432-.361-.092-.488.016-.623.324a4.931,4.931,0,0,1-9.128,0c-.135-.308-.261-.414-.622-.323-1.982.5-3.977.951-5.959,1.451a2.643,2.643,0,0,0-2.137,2.237c-.3,2.108-.463,4.236-.683,6.355-.184.735-.588,1.23-1.411,1.124-.7-.09-1.047-.673-.952-1.608.209-2.062.4-4.127.681-6.18a5.237,5.237,0,0,1,4.1-4.281c1.984-.479,3.969-.95,5.96-1.4a.865.865,0,0,0,.8-.843,2.279,2.279,0,0,0-.764-2.267,11.771,11.771,0,0,1-3.438-8.316c-.264-1.455-.745-2.861-.871-4.351-.32-3.786,1.062-7.337,4.981-8.785.515-.19.784-.647,1.2-1.081-.927-.222-1.751-.375-2.545-.626-.521-.165-.735.009-.961.449-1.3,2.516-2.619,5.019-3.934,7.525-.749,1.426-1.617,1.478-2.563.182a11.717,11.717,0,0,0-1.481-1.948v8.623c-.171.68-.537,1.188-1.3,1.139a1.172,1.172,0,0,1-1.117-1.133V46.44c-.6.855-1.065,1.517-1.534,2.175-.9,1.264-1.792,1.21-2.513-.156-1.32-2.5-2.652-5-3.939-7.521a.759.759,0,0,0-1.029-.489c-2.119.533-4.25,1.016-6.371,1.537a4.7,4.7,0,0,0-3.14,2.346,1.443,1.443,0,0,1-1.644.855c-.867-.7-.947-1.106-.386-2.076a7.2,7.2,0,0,1,4.756-3.464c3.158-.764,6.318-1.52,9.489-2.229.631-.141.812-.411.9-1.028.267-1.792.28-3.307-1.443-4.622a11.347,11.347,0,0,1-3.308-5,.971.971,0,0,0-.928-.736,4.56,4.56,0,0,1-4.038-5.666A2.984,2.984,0,0,1,12.8,17.84c.575-.121.536-.388.424-.814a16.34,16.34,0,0,1-.453-7.41A6.9,6.9,0,0,1,15.459,5.2a1.118,1.118,0,0,0,.442-.484C17.089,1.657,19.609.542,22.606.155A23.466,23.466,0,0,1,30.461.7,1.3,1.3,0,0,1,31.6,2.281c-.46.885-1.216.848-2.033.671a19.064,19.064,0,0,0-6.842-.421c-2.175.318-4.11,1.026-4.739,3.485a1.5,1.5,0,0,1-.767.858,4.608,4.608,0,0,0-2.063,2.957,11.545,11.545,0,0,0-.091,4.348,9.352,9.352,0,0,0,.646,2.732,4.766,4.766,0,0,0,1.781-3.126c.123-.916.225-1.835.352-2.75a1.2,1.2,0,0,1,1.595-1.129,35.769,35.769,0,0,0,14.44.033c1.1-.224,1.623.165,1.788,1.289.086.582.147,1.167.2,1.753a5.341,5.341,0,0,0,1.35,3.449c.152.153.275.422.518.377.265-.049.233-.365.272-.557a24.392,24.392,0,0,0,.495-2.895c.238-3.087-.353-5.881-3.056-7.827a1.47,1.47,0,0,1-.562-1.772m4.853,29.606a1.367,1.367,0,0,1,1.189,1.564,13.312,13.312,0,0,0,.848,4.352c.113.32.216.5.654.393,3.263-.8,6.534-1.57,9.805-2.333a.725.725,0,0,0,.662-.8c.023-.867.1-1.735.186-2.6a.991.991,0,0,0-.408-.934A16.073,16.073,0,0,1,48.1,26.65a.746.746,0,0,0-.717-.574A4.3,4.3,0,0,1,44.9,25.16c-.373-.3-.557-.184-.754.2-.588,1.148-1.233,2.266-1.8,3.424a1.508,1.508,0,0,1-1.713,1.026c-.858-.791-.916-1.044-.4-2.106.384-.793.8-1.572,1.3-2.56a5.679,5.679,0,0,1-2.58.895c-.549-.008-.712.274-.877.7A11.194,11.194,0,0,1,35.02,31.5a4.471,4.471,0,0,0-1.674,5.028.548.548,0,0,1,.009.168c-.027.375.146.521.519.6,1.367.3,2.722.65,4.086.962.338.077.671.308,1.058.112a18.24,18.24,0,0,1-.476-3.5c-.023-.873.3-1.4,1.193-1.515m19.729.412a5.082,5.082,0,0,0,2.573-.665c4.989-2.718,7.45-7.009,7.855-12.59a.937.937,0,0,0-.413-.915,5.593,5.593,0,0,1-1.853-2.553,1.165,1.165,0,0,0-.861-.79,22.04,22.04,0,0,1-6.75-3.5.681.681,0,0,0-1-.007A22.663,22.663,0,0,1,52.1,16.314a.843.843,0,0,0-.646.561A6.108,6.108,0,0,1,49.49,19.65a.835.835,0,0,0-.343.785,14.367,14.367,0,0,0,5.785,11.358,7.648,7.648,0,0,0,4.534,1.98M37.1,20.426c.2-.489-.13-.968-.637-1.4a7.962,7.962,0,0,1-2.953-6c-.018-.52-.241-.568-.7-.495a37.021,37.021,0,0,1-12.152-.013c-.45-.077-.667-.022-.686.494a8.459,8.459,0,0,1-3.259,6.306,1.052,1.052,0,0,0-.371.961c.331,5.693,2.776,10.082,7.883,12.839a4.976,4.976,0,0,0,4.986.015c4.969-2.68,7.477-6.921,7.886-12.7m8.89-3.632c-.021.8-.021.8.227.9a1.911,1.911,0,0,0,2.725-1,3.161,3.161,0,0,0,.391-.926,1.892,1.892,0,0,1,1.6-1.6,20.261,20.261,0,0,0,7.47-3.926c.938-.766,1.28-.786,2.2-.022a20.683,20.683,0,0,0,7.7,4.029,1.7,1.7,0,0,1,1.328,1.336A4.13,4.13,0,0,0,70.7,17.555a3.835,3.835,0,0,0,2.288.06.69.69,0,0,0,.036-.391,29.73,29.73,0,0,0-.948-6.393C71.36,8.208,70.405,5.7,68.2,3.895c-1.969-1.616-5.658-2.232-7.888-.339A1.224,1.224,0,0,1,58.628,3.5a5.589,5.589,0,0,0-4.123-1.068A7.446,7.446,0,0,0,48.53,6.682c-1.735,3.176-2.222,6.673-2.544,10.113M49.717,55.64c.109-.342-.137-.66-.468-.956a5.4,5.4,0,0,1-1.875-3.468c-.055-.476-.271-.61-.727-.549a26.561,26.561,0,0,1-7.045,0c-.438-.058-.69.03-.747.522a5.418,5.418,0,0,1-1.925,3.532,1.189,1.189,0,0,0-.4,1.116A9.333,9.333,0,0,0,41.7,63.774a2.932,2.932,0,0,0,2.895-.026,9.458,9.458,0,0,0,5.126-8.108M78.052,34.634a18.714,18.714,0,0,0-.144-2.093c-.447-2.695-1.87-4.961-3.12-7.308-.195-.366-.392-.293-.657-.082a4.46,4.46,0,0,1-2.566.932.622.622,0,0,0-.613.456,16.018,16.018,0,0,1-4.776,6.6.762.762,0,0,0-.287.738c.1.89.235,1.781.261,2.673.016.552.284.7.737.8,3.16.743,6.321,1.489,9.472,2.27.513.127.736.071.911-.464a13.3,13.3,0,0,0,.784-4.531m-11.818,5.01-.94-.231c-1.13-.274-1.357-.552-1.439-1.733-.049-.7-.145-1.4-.162-2.1-.014-.534-.138-.618-.627-.361a7.237,7.237,0,0,1-7.159-.027c-.4-.214-.535-.153-.569.29-.066.867-.169,1.732-.23,2.6a1.218,1.218,0,0,1-1.046,1.233c-.274.059-.541.147-.816.2-.353.067-.454.211-.3.569a18,18,0,0,0,6.084,7.79.7.7,0,0,0,.957-.01,17.934,17.934,0,0,0,6.246-8.222M50.378,52.305a11.78,11.78,0,0,0,.287-2.729c-.1-2.983-1.521-4.814-4.373-5.487a13.838,13.838,0,0,0-6.658.071c-3.9.991-4.7,4.957-3.662,8.066a2.72,2.72,0,0,0,.57-1.553A2.732,2.732,0,0,1,39.662,48.3a26.322,26.322,0,0,0,6.623.046A2.753,2.753,0,0,1,49.716,50.9a2.032,2.032,0,0,0,.662,1.406M30.774,35c-.339.164-.635.314-.937.452a7.563,7.563,0,0,1-5.647.258c-.539-.174-1.123-.866-1.531-.529-.322.266-.178,1.1-.23,1.69-.033.38-.109.733.3,1.046,1.219.94,2.409,1.922,3.585,2.918a.538.538,0,0,0,.841,0c1.156-.975,2.338-1.921,3.51-2.877.194-.158.423-.294.382-.6A12.256,12.256,0,0,0,30.774,35M45.662,67.184a2.662,2.662,0,0,1-.015-.335c.057-.7-.106-.942-.874-.635a4.765,4.765,0,0,1-3.208.047c-.931-.284-.931-.283-.983.729,0,.056-.006.112-.009.168a2.561,2.561,0,1,0,5.09.027M22.9,46.068c.473-.667.845-1.19,1.215-1.714,1.02-1.445,1.019-1.445-.344-2.553-.867-.706-1.75-1.394-2.592-2.129-.477-.416-.9-.058-1.337.007-.217.032-.169.246-.084.408L22.9,46.068m7.65.008c1.011-1.923,1.981-3.75,2.925-5.59.118-.23.516-.57.15-.762-.344-.18-.807-.47-1.249-.111-1.24,1.007-2.473,2.023-3.716,3.025a.388.388,0,0,0-.086.629c.653.905,1.286,1.825,1.975,2.809M45.434,21.464a2.179,2.179,0,0,0,1.084,1.944c.162.1.359.261.539.159.212-.121.05-.348.029-.527-.088-.775-.177-1.55-.274-2.324-.029-.231.093-.551-.246-.634a.842.842,0,0,0-.839.268,1.594,1.594,0,0,0-.294,1.115M39.1,23.584a2.245,2.245,0,0,0,1.591-2.924.859.859,0,0,0-.915-.588c-.548.044-.32.5-.359.781-.121.88-.208,1.764-.318,2.73m32.8-.015a2.221,2.221,0,0,0,1.555-2.949.888.888,0,0,0-.855-.558c-.25-.01-.34.109-.364.345-.106,1.05-.222,2.1-.336,3.163M12.627,21.445a2.368,2.368,0,0,0,1.085,1.946c.159.1.346.269.536.162.219-.124.064-.356.046-.533-.081-.778-.174-1.556-.284-2.331-.031-.22.111-.55-.265-.612a.823.823,0,0,0-.824.307,1.8,1.8,0,0,0-.295,1.06" transform="translate(-3.061 0)" fill="#040303"/>
        <path id="Trazado_654266" data-name="Trazado 654266" d="M132.479,134.208c.223-1.378.686-2.7.845-4.1.584-5.166-1.843-8.539-6.966-9.572-.129-.026-.288,0-.363-.268q2.227-.535,4.442-1.068c.506-.123.523.29.645.58a21.036,21.036,0,0,0,4.66,7.037,19.634,19.634,0,0,0,3.182,2.475,1.629,1.629,0,0,0,1.944-.017,19.454,19.454,0,0,0,7.732-9.39c.257-.623.512-.763,1.176-.589,2.194.576,4.412,1.058,6.617,1.594a4.891,4.891,0,0,1,3.852,4.448c.306,2.956.626,5.911.94,8.866l-28.7,0" transform="translate(-83.433 -78.919)" fill="#d56b70"/>
        <path id="Trazado_654267" data-name="Trazado 654267" d="M77.226,214.263c.22-2.119.385-4.247.683-6.355a2.643,2.643,0,0,1,2.137-2.237c1.983-.5,3.977-.951,5.96-1.451.361-.091.487.015.622.323a4.931,4.931,0,0,0,9.128,0c.135-.308.261-.415.623-.324,1.955.494,3.921.945,5.877,1.432a2.8,2.8,0,0,1,2.277,2.588c.225,2.006.42,4.015.627,6.023H77.226" transform="translate(-51.139 -135.213)" fill="#abccf9"/>
        <path id="Trazado_654268" data-name="Trazado 654268" d="M5.854,124.383a1.443,1.443,0,0,0,1.644-.855,4.7,4.7,0,0,1,3.14-2.346c2.122-.521,4.252-1,6.371-1.537a.76.76,0,0,1,1.029.489c1.286,2.52,2.619,5.018,3.939,7.521.721,1.367,1.613,1.421,2.513.156.468-.658.931-1.32,1.533-2.175v8.833q-9.46-.005-18.92-.011c-.392,0-.783-.021-1.175-.032.155-1.586.291-3.173.474-4.756a1.28,1.28,0,0,0-1.041-1.625l.493-3.662" transform="translate(-3.55 -79.195)" fill="#ef996e"/>
        <path id="Trazado_654269" data-name="Trazado 654269" d="M55.03,8.229A1.47,1.47,0,0,0,55.592,10c2.7,1.946,3.295,4.74,3.056,7.827a24.393,24.393,0,0,1-.495,2.895c-.039.192-.007.508-.272.557-.243.045-.366-.224-.518-.377a5.341,5.341,0,0,1-1.35-3.449c-.057-.585-.118-1.171-.2-1.753-.166-1.124-.684-1.513-1.788-1.289a35.77,35.77,0,0,1-14.44-.033,1.2,1.2,0,0,0-1.595,1.129c-.127.915-.228,1.834-.352,2.75a4.766,4.766,0,0,1-1.781,3.126,9.352,9.352,0,0,1-.646-2.732A11.545,11.545,0,0,1,35.3,14.3a4.609,4.609,0,0,1,2.063-2.957,1.5,1.5,0,0,0,.767-.858C38.759,8.03,40.694,7.322,42.869,7a19.064,19.064,0,0,1,6.842.421c.817.177,1.573.215,2.033-.671A12.058,12.058,0,0,1,55.03,8.229" transform="translate(-23.208 -4.472)" fill="#6a5a62"/>
        <path id="Trazado_654270" data-name="Trazado 654270" d="M73.681,134.414v-8.623a11.719,11.719,0,0,1,1.481,1.948c.946,1.3,1.814,1.243,2.563-.182,1.316-2.506,2.638-5.009,3.934-7.525.227-.439.441-.613.961-.449.793.251,1.618.4,2.544.626-.42.434-.69.891-1.2,1.081-3.919,1.447-5.3,5-4.981,8.785.126,1.489.607,2.9.871,4.351l-6.169-.011" transform="translate(-48.791 -79.147)" fill="#ed986d"/>
        <path id="Trazado_654271" data-name="Trazado 654271" d="M1.81,144.609a1.281,1.281,0,0,1,1.041,1.625c-.183,1.582-.319,3.17-.474,4.755-.276.917-.765,1.311-1.443,1.162-.706-.156-1.017-.729-.917-1.626q.245-2.2.459-4.411c.081-.836.371-1.463,1.334-1.506" transform="translate(0.001 -95.759)" fill="#040303"/>
        <path id="Trazado_654272" data-name="Trazado 654272" d="M146.739,58.353a7.649,7.649,0,0,1-4.534-1.98,14.368,14.368,0,0,1-5.785-11.358.836.836,0,0,1,.344-.785,6.111,6.111,0,0,0,1.969-2.775.843.843,0,0,1,.646-.561,22.663,22.663,0,0,0,6.908-3.559.681.681,0,0,1,1,.007,22.04,22.04,0,0,0,6.75,3.5,1.165,1.165,0,0,1,.861.79,5.589,5.589,0,0,0,1.853,2.553.938.938,0,0,1,.413.915c-.4,5.582-2.866,9.872-7.855,12.59a5.081,5.081,0,0,1-2.573.665m.027-4.227a8.236,8.236,0,0,0,3.276-.631,1.211,1.211,0,0,0,.848-1.582,1.2,1.2,0,0,0-1.682-.609,6.66,6.66,0,0,1-4.915-.023,1.148,1.148,0,0,0-1.659.639c-.241.636.038,1.19.784,1.527a8.057,8.057,0,0,0,3.347.679M143.684,44.9a1.474,1.474,0,0,0-2.947.086,1.474,1.474,0,0,0,2.947-.086m7.683-1.428A1.47,1.47,0,1,0,152.807,45a1.49,1.49,0,0,0-1.44-1.534" transform="translate(-90.335 -24.579)" fill="#f2cfa7"/>
        <path id="Trazado_654273" data-name="Trazado 654273" d="M60.057,44.906c-.409,5.784-2.917,10.024-7.886,12.7a4.975,4.975,0,0,1-4.986-.015c-5.107-2.756-7.552-7.146-7.883-12.839a1.053,1.053,0,0,1,.371-.961,8.458,8.458,0,0,0,3.259-6.306c.019-.516.237-.571.686-.494a37.022,37.022,0,0,0,12.152.013c.455-.073.679-.025.7.5a7.961,7.961,0,0,0,2.953,6c.506.432.834.911.637,1.4m-7.351,9.819a13.7,13.7,0,0,0,2.174-.272,1.175,1.175,0,0,0,1.045-1.232,4.956,4.956,0,0,0-5.245-4.862,11.83,11.83,0,0,1-1.923.007,4.884,4.884,0,0,0-5.277,4.71,1.191,1.191,0,0,0,1.125,1.4,6.432,6.432,0,0,0,2.174.173,13.184,13.184,0,0,1,5.927.078M52.78,44.8a1.491,1.491,0,0,0,1.477,1.5,1.472,1.472,0,0,0,1.461-1.428,1.488,1.488,0,0,0-1.387-1.507A1.507,1.507,0,0,0,52.78,44.8M45.1,43.368A1.475,1.475,0,0,0,43.657,44.9,1.453,1.453,0,1,0,45.1,43.368" transform="translate(-26.023 -24.479)" fill="#f2cea7"/>
        <path id="Trazado_654274" data-name="Trazado 654274" d="M127.051,21.473c.322-3.44.809-6.937,2.544-10.113a7.447,7.447,0,0,1,5.976-4.251,5.59,5.59,0,0,1,4.123,1.068,1.224,1.224,0,0,0,1.686.058c2.23-1.892,5.919-1.277,7.888.339,2.2,1.808,3.158,4.313,3.87,6.936a29.733,29.733,0,0,1,.948,6.393.689.689,0,0,1-.036.39,3.833,3.833,0,0,1-2.288-.06,4.124,4.124,0,0,1-1.073-1.974,1.7,1.7,0,0,0-1.328-1.336,20.687,20.687,0,0,1-7.7-4.029c-.921-.764-1.262-.744-2.2.022a20.26,20.26,0,0,1-7.47,3.927,1.891,1.891,0,0,0-1.6,1.6,3.149,3.149,0,0,1-.392.926,1.91,1.91,0,0,1-2.725,1c-.248-.1-.248-.1-.227-.9" transform="translate(-84.127 -4.678)" fill="#6a5a62"/>
        <path id="Trazado_654275" data-name="Trazado 654275" d="M112.253,154.934a9.457,9.457,0,0,1-5.127,8.108,2.932,2.932,0,0,1-2.895.026,9.333,9.333,0,0,1-5.162-7.934,1.189,1.189,0,0,1,.4-1.116,5.416,5.416,0,0,0,1.925-3.531c.057-.492.308-.58.747-.522a26.548,26.548,0,0,0,7.045,0c.455-.061.671.073.727.549a5.4,5.4,0,0,0,1.875,3.468c.33.3.576.614.468.956" transform="translate(-65.597 -99.294)" fill="#f9dfa6"/>
        <path id="Trazado_654276" data-name="Trazado 654276" d="M109.466,78.8a1.507,1.507,0,0,0,1.713-1.026c.566-1.158,1.212-2.277,1.8-3.424.2-.384.38-.5.754-.2a4.294,4.294,0,0,0,2.486.916.746.746,0,0,1,.717.574,16.069,16.069,0,0,0,4.568,6.359.991.991,0,0,1,.408.934c-.084.865-.163,1.732-.186,2.6a.725.725,0,0,1-.662.8c-3.272.763-6.543,1.532-9.805,2.333-.438.107-.542-.073-.655-.393a13.312,13.312,0,0,1-.848-4.352,1.367,1.367,0,0,0-1.189-1.564,14.9,14.9,0,0,1,.9-3.552" transform="translate(-71.892 -48.985)" fill="#6a5a62"/>
        <path id="Trazado_654277" data-name="Trazado 654277" d="M198.134,83.6a13.32,13.32,0,0,1-.784,4.531c-.174.535-.4.591-.911.464-3.151-.781-6.311-1.527-9.472-2.27-.453-.106-.721-.25-.737-.8-.026-.893-.161-1.783-.261-2.673a.762.762,0,0,1,.287-.738,16.018,16.018,0,0,0,4.776-6.605.623.623,0,0,1,.613-.456,4.459,4.459,0,0,0,2.567-.932c.266-.21.462-.283.657.082,1.25,2.346,2.674,4.613,3.12,7.307a18.729,18.729,0,0,1,.144,2.093" transform="translate(-123.143 -48.962)" fill="#6a5a62"/>
        <path id="Trazado_654278" data-name="Trazado 654278" d="M160.823,108.405a17.934,17.934,0,0,1-6.246,8.222.7.7,0,0,1-.957.01,18,18,0,0,1-6.084-7.79c-.157-.358-.055-.5.3-.569.275-.052.542-.14.816-.2a1.218,1.218,0,0,0,1.046-1.233c.061-.868.165-1.732.23-2.6.033-.443.17-.5.569-.29a7.237,7.237,0,0,0,7.159.027c.488-.256.613-.173.626.361.018.7.114,1.4.163,2.1.083,1.181.309,1.459,1.439,1.733l.94.231" transform="translate(-97.651 -68.761)" fill="#f1b989"/>
        <path id="Trazado_654279" data-name="Trazado 654279" d="M111.019,138.006a2.035,2.035,0,0,1-.662-1.407,2.752,2.752,0,0,0-3.43-2.554A26.323,26.323,0,0,1,100.3,134a2.732,2.732,0,0,0-3.121,2.375,2.72,2.72,0,0,1-.57,1.553c-1.038-3.109-.236-7.076,3.662-8.066a13.839,13.839,0,0,1,6.658-.071c2.851.673,4.274,2.5,4.373,5.487a11.782,11.782,0,0,1-.287,2.729" transform="translate(-63.702 -85.7)" fill="#c09071"/>
        <path id="Trazado_654280" data-name="Trazado 654280" d="M65.621,103.626a12.28,12.28,0,0,1,.269,2.356c.04.306-.188.442-.383.6-1.172.956-2.353,1.9-3.51,2.877a.538.538,0,0,1-.841,0c-1.176-.995-2.365-1.977-3.585-2.918-.405-.312-.33-.665-.3-1.045.051-.585-.093-1.424.23-1.69.408-.337.992.355,1.531.529a7.566,7.566,0,0,0,5.648-.258c.3-.137.6-.288.937-.452" transform="translate(-37.908 -68.621)" fill="#f1b989"/>
        <path id="Trazado_654281" data-name="Trazado 654281" d="M116.125,196.728a2.561,2.561,0,1,1-5.09-.027c0-.056.006-.112.009-.168.052-1.012.052-1.013.983-.728a4.767,4.767,0,0,0,3.208-.047c.769-.306.932-.061.875.635a2.538,2.538,0,0,0,.015.335" transform="translate(-73.525 -129.544)" fill="#edcf96"/>
        <path id="Trazado_654282" data-name="Trazado 654282" d="M52.43,123.449l-3.142-5.981c-.085-.162-.133-.376.084-.408.438-.065.86-.423,1.337-.007.842.735,1.725,1.423,2.593,2.128,1.362,1.109,1.363,1.108.343,2.554-.37.524-.742,1.047-1.215,1.714" transform="translate(-32.59 -77.381)" fill="#e88459"/>
        <path id="Trazado_654283" data-name="Trazado 654283" d="M77.261,123.4c-.689-.984-1.323-1.9-1.975-2.81a.387.387,0,0,1,.086-.628c1.243-1,2.476-2.018,3.716-3.026.442-.359.9-.069,1.249.112.366.192-.032.532-.15.762-.944,1.84-1.914,3.667-2.925,5.59" transform="translate(-49.772 -77.319)" fill="#e88459"/>
        <path id="Trazado_654284" data-name="Trazado 654284" d="M125.436,60.781a1.592,1.592,0,0,1,.294-1.115.841.841,0,0,1,.838-.267c.339.083.217.4.246.634.1.774.186,1.549.274,2.324.021.179.183.406-.029.527-.18.1-.377-.061-.539-.159a2.179,2.179,0,0,1-1.084-1.944" transform="translate(-83.063 -39.316)" fill="#e7b184"/>
        <path id="Trazado_654285" data-name="Trazado 654285" d="M106.692,62.924c.11-.966.2-1.851.317-2.73.039-.285-.189-.737.359-.781a.859.859,0,0,1,.915.588,2.245,2.245,0,0,1-1.591,2.924" transform="translate(-70.651 -39.34)" fill="#e7b184"/>
        <path id="Trazado_654286" data-name="Trazado 654286" d="M203.778,62.895c.114-1.065.23-2.113.336-3.163.024-.235.114-.354.364-.345a.887.887,0,0,1,.854.558,2.22,2.22,0,0,1-1.555,2.949" transform="translate(-134.941 -39.326)" fill="#e7b184"/>
        <path id="Trazado_654287" data-name="Trazado 654287" d="M28.317,60.774a1.8,1.8,0,0,1,.295-1.06.823.823,0,0,1,.824-.307c.376.062.234.392.265.612.109.775.2,1.553.284,2.331.018.176.174.409-.046.533-.191.107-.378-.064-.536-.162a2.368,2.368,0,0,1-1.085-1.946" transform="translate(-18.751 -39.329)" fill="#e7b184"/>
        <path id="Trazado_654288" data-name="Trazado 654288" d="M158.789,81.642a8.073,8.073,0,0,1-3.347-.68c-.746-.336-1.025-.89-.784-1.527a1.148,1.148,0,0,1,1.659-.639,6.658,6.658,0,0,0,4.915.023,1.2,1.2,0,0,1,1.682.609,1.211,1.211,0,0,1-.848,1.582,8.261,8.261,0,0,1-3.276.632" transform="translate(-102.358 -52.094)" fill="#040303"/>
        <path id="Trazado_654289" data-name="Trazado 654289" d="M152.151,57.34a1.474,1.474,0,1,1-1.56-1.427,1.512,1.512,0,0,1,1.56,1.427" transform="translate(-98.802 -37.024)" fill="#040303"/>
        <path id="Trazado_654290" data-name="Trazado 654290" d="M177.794,55.917a1.49,1.49,0,0,1,1.44,1.534,1.455,1.455,0,1,1-1.44-1.534" transform="translate(-116.762 -37.028)" fill="#040303"/>
        <path id="Trazado_654291" data-name="Trazado 654291" d="M60.9,77.03a13.179,13.179,0,0,0-5.927-.079,6.423,6.423,0,0,1-2.174-.173,1.191,1.191,0,0,1-1.125-1.4,4.884,4.884,0,0,1,5.277-4.71,11.829,11.829,0,0,0,1.923-.007,4.956,4.956,0,0,1,5.246,4.862,1.176,1.176,0,0,1-1.046,1.232,13.734,13.734,0,0,1-2.174.273m.544-2.494a1.991,1.991,0,0,0-1.975-1.47c-1.056.018-2.108.047-3.165,0a1.917,1.917,0,0,0-1.748.986c-.227.357-.207.545.287.562a4.41,4.41,0,0,0,2.2-.454,1.774,1.774,0,0,1,1.753.024,4.065,4.065,0,0,0,2.649.353" transform="translate(-34.217 -46.785)" fill="#040303"/>
        <path id="Trazado_654292" data-name="Trazado 654292" d="M79.206,57.348a1.507,1.507,0,0,1,1.551-1.433,1.488,1.488,0,0,1,1.387,1.507,1.472,1.472,0,0,1-1.461,1.428,1.491,1.491,0,0,1-1.477-1.5" transform="translate(-52.449 -37.025)" fill="#040303"/>
        <path id="Trazado_654293" data-name="Trazado 654293" d="M53.639,55.916A1.469,1.469,0,1,1,52.2,57.444a1.475,1.475,0,0,1,1.439-1.528" transform="translate(-34.566 -37.027)" fill="#040303"/>
        <path id="Trazado_654294" data-name="Trazado 654294" d="M66.824,79.264a4.065,4.065,0,0,1-2.649-.353,1.774,1.774,0,0,0-1.753-.024,4.41,4.41,0,0,1-2.2.454c-.494-.017-.513-.2-.287-.562a1.917,1.917,0,0,1,1.748-.986c1.057.048,2.109.019,3.165,0a1.991,1.991,0,0,1,1.975,1.47" transform="translate(-39.597 -51.513)" fill="#6a5a62"/>
      </g>
    </g>
  </g>
</svg>
